<svg width="157" height="24" viewBox="0 0 157 24" fill="none" xmlns="http://www.w3.org/2000/svg">
<path d="M11.6477 4.03084L23.2971 24H28L13.9992 0L11.6477 4.03084Z" fill="white"/>
<path d="M0 24L10.5133 5.97547L21.0282 24L16.3259 24L10.5141 14.0385L7.05437 19.9692H10.2193L12.5466 24H0Z" fill="white"/>
<path d="M48.983 17.7716H43.4248L42.5799 20.4108H38L43.7138 4.23177H48.7384L54.43 20.4108H49.8278L48.983 17.7716ZM47.8936 14.3293L46.2039 9.09695L44.5364 14.3293H47.8936Z" fill="white"/>
<path d="M60.2079 3.42856V20.4108H55.8503V3.42856H60.2079Z" fill="white"/>
<path d="M61.978 13.9621C61.978 12.6311 62.2078 11.4683 62.6672 10.4739C63.1415 9.47943 63.7789 8.71446 64.5793 8.17899C65.3945 7.64351 66.2986 7.37578 67.2917 7.37578C68.1513 7.37578 68.8924 7.55172 69.5149 7.9036C70.1374 8.25548 70.6192 8.72976 70.9601 9.32644V7.53642H75.3177V20.4108H70.9601V18.6208C70.6192 19.2174 70.13 19.6917 69.4927 20.0436C68.8702 20.3955 68.1365 20.5714 67.2917 20.5714C66.2986 20.5714 65.3945 20.3037 64.5793 19.7682C63.7789 19.2327 63.1415 18.4678 62.6672 17.4733C62.2078 16.4636 61.978 15.2932 61.978 13.9621ZM70.9601 13.9621C70.9601 13.136 70.7377 12.4857 70.2931 12.0115C69.8632 11.5372 69.3297 11.3 68.6923 11.3C68.0402 11.3 67.4992 11.5372 67.0693 12.0115C66.6395 12.4704 66.4246 13.1207 66.4246 13.9621C66.4246 14.7883 66.6395 15.4462 67.0693 15.9357C67.4992 16.41 68.0402 16.6471 68.6923 16.6471C69.3297 16.6471 69.8632 16.41 70.2931 15.9357C70.7377 15.4615 70.9601 14.8036 70.9601 13.9621Z" fill="white"/>
<path d="M85.5823 20.4108L83.3368 17.175L81.5581 20.4108H76.7781L80.9356 13.7326L76.6002 7.53642H81.4914L83.7369 10.7722L85.5378 7.53642H90.3178L86.0714 14.0998L90.4735 20.4108H85.5823Z" fill="white"/>
<path d="M91.05 13.9621C91.05 12.6311 91.2797 11.4683 91.7392 10.4739C92.2135 9.47943 92.8508 8.71446 93.6512 8.17899C94.4664 7.64351 95.3705 7.37578 96.3636 7.37578C97.2233 7.37578 97.9643 7.55172 98.5869 7.9036C99.2094 8.25548 99.6911 8.72976 100.032 9.32644V7.53642H104.39V20.4108H100.032V18.6208C99.6911 19.2174 99.202 19.6917 98.5646 20.0436C97.9421 20.3955 97.2084 20.5714 96.3636 20.5714C95.3705 20.5714 94.4664 20.3037 93.6512 19.7682C92.8508 19.2327 92.2135 18.4678 91.7392 17.4733C91.2797 16.4636 91.05 15.2932 91.05 13.9621ZM100.032 13.9621C100.032 13.136 99.8097 12.4857 99.365 12.0115C98.9352 11.5372 98.4016 11.3 97.7642 11.3C97.1121 11.3 96.5711 11.5372 96.1413 12.0115C95.7114 12.4704 95.4965 13.1207 95.4965 13.9621C95.4965 14.7883 95.7114 15.4462 96.1413 15.9357C96.5711 16.41 97.1121 16.6471 97.7642 16.6471C98.4016 16.6471 98.9352 16.41 99.365 15.9357C99.8097 15.4615 100.032 14.8036 100.032 13.9621Z" fill="white"/>
<path d="M114.232 16.5783V20.4108H112.342C109.155 20.4108 107.562 18.7814 107.562 15.5226V11.2771H106.028V7.53642H107.562V4.41536H111.942V7.53642H114.21V11.2771H111.942V15.5915C111.942 15.9434 112.016 16.1958 112.164 16.3488C112.327 16.5018 112.594 16.5783 112.965 16.5783H114.232Z" fill="white"/>
<path d="M128.147 13.8244C128.147 14.1763 128.125 14.5282 128.081 14.8801H119.832C119.877 15.5838 120.062 16.1117 120.388 16.4636C120.729 16.8001 121.159 16.9684 121.677 16.9684C122.404 16.9684 122.923 16.6318 123.234 15.9587H127.88C127.688 16.846 127.31 17.6416 126.747 18.3454C126.198 19.0338 125.502 19.577 124.657 19.9747C123.812 20.3725 122.878 20.5714 121.855 20.5714C120.625 20.5714 119.528 20.3037 118.565 19.7682C117.616 19.2327 116.868 18.4678 116.319 17.4733C115.786 16.4789 115.519 15.3085 115.519 13.9621C115.519 12.6158 115.786 11.453 116.319 10.4739C116.853 9.47943 117.594 8.71446 118.543 8.17899C119.506 7.64351 120.61 7.37578 121.855 7.37578C123.086 7.37578 124.175 7.63586 125.124 8.15604C126.072 8.67622 126.813 9.42588 127.347 10.405C127.88 11.3689 128.147 12.5087 128.147 13.8244ZM123.701 12.6999C123.701 12.1492 123.523 11.7208 123.167 11.4148C122.811 11.0935 122.367 10.9329 121.833 10.9329C121.3 10.9329 120.862 11.0859 120.521 11.3918C120.18 11.6825 119.958 12.1186 119.854 12.6999H123.701Z" fill="white"/>
<path d="M129.219 13.9621C129.219 12.6311 129.486 11.4683 130.019 10.4739C130.553 9.47943 131.294 8.71446 132.243 8.17899C133.206 7.64351 134.303 7.37578 135.533 7.37578C137.119 7.37578 138.453 7.8271 139.535 8.72976C140.617 9.61712 141.314 10.864 141.625 12.4704H137.001C136.734 11.629 136.215 11.2082 135.444 11.2082C134.896 11.2082 134.459 11.4454 134.133 11.9197C133.821 12.3786 133.666 13.0595 133.666 13.9621C133.666 14.8648 133.821 15.5532 134.133 16.0275C134.459 16.5018 134.896 16.7389 135.444 16.7389C136.23 16.7389 136.749 16.3182 137.001 15.4767H141.625C141.314 17.0679 140.617 18.3148 139.535 19.2174C138.453 20.1201 137.119 20.5714 135.533 20.5714C134.303 20.5714 133.206 20.3037 132.243 19.7682C131.294 19.2327 130.553 18.4678 130.019 17.4733C129.486 16.4789 129.219 15.3085 129.219 13.9621Z" fill="white"/>
<path d="M151.639 7.42167C153.062 7.42167 154.188 7.9189 155.018 8.91335C155.863 9.89251 156.286 11.2235 156.286 12.9065V20.4108H151.928V13.5031C151.928 12.7688 151.743 12.1951 151.372 11.782C151.002 11.3536 150.505 11.1394 149.883 11.1394C149.231 11.1394 148.719 11.3536 148.349 11.782C147.978 12.1951 147.793 12.7688 147.793 13.5031V20.4108H143.435V3.42856H147.793V9.37233C148.178 8.79096 148.697 8.32433 149.349 7.97245C150.016 7.60526 150.779 7.42167 151.639 7.42167Z" fill="white"/>
</svg>
