<svg width="133" height="24" viewBox="0 0 133 24" fill="none" xmlns="http://www.w3.org/2000/svg">
<path d="M41.9829 15.6886H37.2574L36.4755 17.931H33.9767L38.2433 6.14562H41.014L45.2805 17.931H42.7648L41.9829 15.6886ZM41.337 13.8002L39.6201 8.877L37.9033 13.8002H41.337Z" fill="#0147FF"/>
<path d="M49.255 16.0595H53.1646V17.931H46.8753V6.16249H49.255V16.0595Z" fill="#0147FF"/>
<path d="M61.9524 15.6886H57.2269L56.445 17.931H53.9463L58.2128 6.14562H60.9835L65.25 17.931H62.7343L61.9524 15.6886ZM61.3065 13.8002L59.5897 8.877L57.8728 13.8002H61.3065Z" fill="#0147FF"/>
<path d="M73.9501 17.931L71.3833 13.9688L69.0546 17.931H66.3689L70.1085 11.9962L66.3179 6.16249H69.0546L71.6213 10.1078L73.9331 6.16249H76.6188L72.8962 12.0805L76.6868 17.931H73.9501Z" fill="#0147FF"/>
<path d="M85.7731 15.6886H81.0476L80.2657 17.931H77.7669L82.0335 6.14562H84.8042L89.0707 17.931H86.555L85.7731 15.6886ZM85.1271 13.8002L83.4103 8.877L81.6935 13.8002H85.1271Z" fill="#0147FF"/>
<path d="M98.7396 6.16249V8.0677H95.578V17.931H93.1982V8.0677H90.0366V6.16249H98.7396Z" fill="#0147FF"/>
<path d="M102.856 8.0677V11.0183H106.85V12.8898H102.856V16.0089H107.36V17.931H100.476V6.14562H107.36V8.0677H102.856Z" fill="#0147FF"/>
<path d="M108.945 12.0299C108.945 10.8721 109.206 9.83804 109.727 8.92758C110.259 8.00588 110.979 7.29213 111.886 6.78632C112.803 6.26927 113.829 6.01074 114.962 6.01074C116.288 6.01074 117.45 6.34795 118.447 7.02236C119.444 7.69678 120.141 8.62972 120.538 9.82118H117.801C117.529 9.25917 117.144 8.83766 116.645 8.55665C116.158 8.27565 115.591 8.13515 114.945 8.13515C114.254 8.13515 113.636 8.29813 113.092 8.62409C112.56 8.93882 112.141 9.38843 111.835 9.97292C111.54 10.5574 111.393 11.2431 111.393 12.0299C111.393 12.8055 111.54 13.4911 111.835 14.0868C112.141 14.6713 112.56 15.1266 113.092 15.4525C113.636 15.7673 114.254 15.9246 114.945 15.9246C115.591 15.9246 116.158 15.7841 116.645 15.5031C117.144 15.2109 117.529 14.7837 117.801 14.2217H120.538C120.141 15.4244 119.444 16.363 118.447 17.0374C117.461 17.7006 116.299 18.0322 114.962 18.0322C113.829 18.0322 112.803 17.7793 111.886 17.2735C110.979 16.7564 110.259 16.0426 109.727 15.1322C109.206 14.2217 108.945 13.1876 108.945 12.0299Z" fill="#0147FF"/>
<path d="M132.412 6.16249V17.931H130.032V12.9235H124.95V17.931H122.57V6.16249H124.95V11.0014H130.032V6.16249H132.412Z" fill="#0147FF"/>
<path d="M21.04 24H16.3507L15.1849 22.0046L14.0183 20.0067L12.8464 18.0002L11.6736 15.9929L10.5017 13.9864L9.32983 15.9929L8.15794 17.9994L6.98344 20.0101H9.33245L10.4974 22.0046L11.6623 24H0L1.16579 22.0046L2.33072 20.0101L3.49564 18.0147L4.66143 16.0202L5.83158 14.0163L7.00347 12.0098L8.17536 10.0042L9.34812 7.99601L10.52 5.99039L11.6919 7.99601L12.8464 9.97261L14.0183 11.9791L15.191 13.9864L16.3629 15.9929L17.5348 17.9994L18.7093 20.0101L19.8742 22.0046L21.04 24Z" fill="#0147FF"/>
<path d="M28.0374 24H23.349L22.1832 22.0046L21.0182 20.0101L19.8533 18.0147L18.6893 16.0228L17.5174 14.0163L16.3455 12.0098L15.1727 10.0025L14.0008 7.99601L12.8464 6.01942L11.6745 4.0138L12.8464 2.00733L14.0191 0L15.191 2.00562L16.3455 3.98307L17.5174 5.98869L18.6901 7.99687L19.862 10.0025L21.0339 12.009L22.2067 14.0163L23.3786 16.0228L24.5417 18.0147L25.7075 20.0101L26.8725 22.0046L28.0374 24Z" fill="#0147FF"/>
</svg>
