<svg width="32" height="32" viewBox="0 0 32 32" fill="none" xmlns="http://www.w3.org/2000/svg">
<path d="M16.5 6.6665C16.5 6.39036 16.2762 6.1665 16 6.1665C15.7239 6.1665 15.5 6.39036 15.5 6.6665H16.5ZM16 25.3332L15.6465 25.6867C15.8417 25.882 16.1583 25.882 16.3536 25.6867L16 25.3332ZM25.6869 16.3534C25.8822 16.1581 25.8822 15.8415 25.6869 15.6463C25.4916 15.451 25.1751 15.451 24.9798 15.6463L25.6869 16.3534ZM7.02024 15.6463C6.82498 15.451 6.5084 15.451 6.31313 15.6463C6.11787 15.8415 6.11787 16.1581 6.31313 16.3534L7.02024 15.6463ZM15.5 6.6665V25.3332H16.5V6.6665H15.5ZM24.9798 15.6463L15.6465 24.9796L16.3536 25.6867L25.6869 16.3534L24.9798 15.6463ZM16.3536 24.9796L7.02024 15.6463L6.31313 16.3534L15.6465 25.6867L16.3536 24.9796Z" fill="#262626"/>
</svg>
