<svg width="32" height="32" viewBox="0 0 32 32" fill="none" xmlns="http://www.w3.org/2000/svg">
<path d="M15.5 25.3334C15.5 25.6096 15.7239 25.8334 16 25.8334C16.2762 25.8334 16.5 25.6096 16.5 25.3334H15.5ZM16 6.66675L16.3536 6.31319C16.1583 6.11793 15.8417 6.11793 15.6465 6.31319L16 6.66675ZM6.31313 15.6465C6.11787 15.8418 6.11787 16.1584 6.31313 16.3536C6.5084 16.5489 6.82498 16.5489 7.02024 16.3536L6.31313 15.6465ZM24.9798 16.3536C25.1751 16.5489 25.4916 16.5489 25.6869 16.3536C25.8822 16.1584 25.8822 15.8418 25.6869 15.6465L24.9798 16.3536ZM16.5 25.3334V6.66675H15.5V25.3334H16.5ZM7.02024 16.3536L16.3536 7.0203L15.6465 6.31319L6.31313 15.6465L7.02024 16.3536ZM15.6465 7.0203L24.9798 16.3536L25.6869 15.6465L16.3536 6.31319L15.6465 7.0203Z" fill="#262626"/>
</svg>
