<svg width="52" height="52" viewBox="0 0 52 52" fill="none" xmlns="http://www.w3.org/2000/svg">
<path fill-rule="evenodd" clip-rule="evenodd" d="M16.2459 19.4974H9.74323C7.94756 19.4974 6.49187 18.0417 6.49187 16.246V9.7433C6.49187 7.94762 7.94756 6.49194 9.74323 6.49194H16.2459C18.0416 6.49194 19.4973 7.94762 19.4973 9.7433V16.246C19.4973 18.0417 18.0416 19.4974 16.2459 19.4974Z" stroke="#7097FF" stroke-width="1.5" stroke-linecap="round" stroke-linejoin="round"/>
<path fill-rule="evenodd" clip-rule="evenodd" d="M42.2568 19.4974H29.2514C27.4557 19.4974 26 18.0417 26 16.246V9.7433C26 7.94762 27.4557 6.49194 29.2514 6.49194H42.2568C44.0524 6.49194 45.5081 7.94762 45.5081 9.7433V16.246C45.5081 18.0417 44.0524 19.4974 42.2568 19.4974Z" stroke="#7097FF" stroke-width="1.5" stroke-linecap="round" stroke-linejoin="round"/>
<path d="M25.0701 29.2515L15.7019 38.4225L12.6261 35.3423" stroke="#7097FF" stroke-width="1.5" stroke-linecap="round" stroke-linejoin="round"/>
<path d="M18.1035 26.9299H11.8891C8.90831 26.9299 6.49187 29.3464 6.49187 32.3272V40.1109C6.49187 43.0917 8.90831 45.5082 11.8891 45.5082H19.6729C22.6537 45.5082 25.0701 43.0917 25.0701 40.1109V38.5416" stroke="#7097FF" stroke-width="1.5" stroke-linecap="round" stroke-linejoin="round"/>
<path fill-rule="evenodd" clip-rule="evenodd" d="M42.2568 39.0054H35.7541C33.9584 39.0054 32.5027 37.5497 32.5027 35.7541V29.2514C32.5027 27.4557 33.9584 26 35.7541 26H42.2568C44.0525 26 45.5081 27.4557 45.5081 29.2514V35.7541C45.5081 37.5497 44.0525 39.0054 42.2568 39.0054Z" stroke="#7097FF" stroke-width="1.5" stroke-linecap="round" stroke-linejoin="round"/>
</svg>
