<svg width="56" height="56" viewBox="0 0 56 56" fill="none" xmlns="http://www.w3.org/2000/svg">
<path fill-rule="evenodd" clip-rule="evenodd" d="M22.4303 42V49H33.5697V42L37.261 34.5147L28 21L18.739 34.5147L22.4303 42Z" stroke="#00E8B1" stroke-width="1.5" stroke-linecap="round" stroke-linejoin="round"/>
<path fill-rule="evenodd" clip-rule="evenodd" d="M30.3777 12.5837H25.711C25.067 12.5837 24.5443 12.061 24.5443 11.417V6.75035C24.5443 6.10635 25.067 5.58368 25.711 5.58368H30.3777C31.0217 5.58368 31.5443 6.10635 31.5443 6.75035V11.417C31.5443 12.061 31.0217 12.5837 30.3777 12.5837Z" stroke="#00E8B1" stroke-width="1.5" stroke-linecap="round" stroke-linejoin="round"/>
<path fill-rule="evenodd" clip-rule="evenodd" d="M6.45402 33.9804H11.1207C11.7647 33.9804 12.2874 33.4577 12.2874 32.8137V28.147C12.2874 27.503 11.7647 26.9803 11.1207 26.9803H6.45402C5.81002 26.9803 5.28735 27.503 5.28735 28.147V32.8137C5.28735 33.4577 5.81002 33.9804 6.45402 33.9804Z" stroke="#00E8B1" stroke-width="1.5" stroke-linecap="round" stroke-linejoin="round"/>
<path fill-rule="evenodd" clip-rule="evenodd" d="M49.539 33.9804H44.8724C44.2284 33.9804 43.7057 33.4577 43.7057 32.8137V28.147C43.7057 27.503 44.2284 26.9803 44.8724 26.9803H49.539C50.183 26.9803 50.7057 27.503 50.7057 28.147V32.8137C50.7057 33.4577 50.183 33.9804 49.539 33.9804Z" stroke="#00E8B1" stroke-width="1.5" stroke-linecap="round" stroke-linejoin="round"/>
<path d="M24.5443 9.21667C15.6473 10.255 8.74066 17.8057 8.74066 26.9803" stroke="#00E8B1" stroke-width="1.5" stroke-linecap="round" stroke-linejoin="round"/>
<path d="M47.2523 26.9803C47.2523 17.8383 40.3923 10.311 31.5443 9.23065" stroke="#00E8B1" stroke-width="1.5" stroke-linecap="round" stroke-linejoin="round"/>
<path d="M22.4233 42H33.5767" stroke="#00E8B1" stroke-width="1.5" stroke-linecap="round" stroke-linejoin="round"/>
<path d="M28 35V21" stroke="#00E8B1" stroke-width="1.5" stroke-linecap="round" stroke-linejoin="round"/>
</svg>
