<svg width="18" height="18" viewBox="0 0 18 18" fill="none" xmlns="http://www.w3.org/2000/svg">
<path d="M12 3H6C4.34315 3 3 4.34315 3 6V12C3 13.6569 4.34315 15 6 15H12C13.6569 15 15 13.6569 15 12V6C15 4.34315 13.6569 3 12 3Z" stroke="#7097FF" stroke-width="1.5" stroke-linecap="round" stroke-linejoin="round"/>
<path d="M9 11.25C10.2426 11.25 11.25 10.2426 11.25 9C11.25 7.75736 10.2426 6.75 9 6.75C7.75736 6.75 6.75 7.75736 6.75 9C6.75 10.2426 7.75736 11.25 9 11.25Z" stroke="#7097FF" stroke-width="1.5" stroke-linecap="round" stroke-linejoin="round"/>
<path d="M12.375 5.625V5.626" stroke="#7097FF" stroke-width="1.5" stroke-linecap="round" stroke-linejoin="round"/>
</svg>
