<svg width="52" height="52" viewBox="0 0 52 52" fill="none" xmlns="http://www.w3.org/2000/svg">
<path d="M16.2459 28.7095H35.7541" stroke="#7097FF" stroke-width="1.5" stroke-linecap="round" stroke-linejoin="round"/>
<path d="M26 28.7095V15.7041" stroke="#7097FF" stroke-width="1.5" stroke-linecap="round" stroke-linejoin="round"/>
<path d="M32.5027 28.7096V20.0393" stroke="#7097FF" stroke-width="1.5" stroke-linecap="round" stroke-linejoin="round"/>
<path d="M34.6703 45.5082L32.5027 36.8379" stroke="#7097FF" stroke-width="1.5" stroke-linecap="round" stroke-linejoin="round"/>
<path d="M17.3297 45.5082L19.4973 36.8379" stroke="#7097FF" stroke-width="1.5" stroke-linecap="round" stroke-linejoin="round"/>
<path fill-rule="evenodd" clip-rule="evenodd" d="M41.0104 36.8379H10.9896C8.50557 36.8379 6.49187 34.8242 6.49187 32.3402V10.9897C6.49187 8.50564 8.50557 6.49194 10.9896 6.49194H41.0083C42.2015 6.49137 43.3461 6.96498 44.19 7.80853C45.034 8.65207 45.5081 9.79641 45.5081 10.9897V32.338C45.5087 33.5313 45.0351 34.6758 44.1915 35.5198C43.348 36.3638 42.2037 36.8379 41.0104 36.8379Z" stroke="#7097FF" stroke-width="1.5" stroke-linecap="round" stroke-linejoin="round"/>
<path d="M19.4973 28.7095V22.2068" stroke="#7097FF" stroke-width="1.5" stroke-linecap="round" stroke-linejoin="round"/>
</svg>
