<svg width="50" height="36" viewBox="0 0 50 36" fill="none" xmlns="http://www.w3.org/2000/svg">
<path fill-rule="evenodd" clip-rule="evenodd" d="M49.7603 35.7598L50 35.5197L50 26.0303L50 16.5411L49.7644 16.2665L49.5288 15.992L45.0769 15.9637L40.625 15.9355L40.625 8.20559L40.625 0.47565L40.3853 0.235553C40.1007 -0.0496453 39.6587 -0.0797815 39.376 0.166579C39.2679 0.260699 36.868 3.98806 34.0429 8.4494L28.9063 16.561L28.9063 26.0404L28.9063 35.5197L29.146 35.7598L29.3856 36L39.4531 36L49.5206 36L49.7603 35.7598ZM20.854 35.7598L21.0938 35.5197L21.0938 26.0303L21.0938 16.5411L20.8581 16.2665L20.6226 15.992L16.1706 15.9637L11.7188 15.9355L11.7188 8.20559L11.7188 0.475647L11.479 0.23555C11.1944 -0.0496479 10.7524 -0.079784 10.4697 0.166577C10.3616 0.260697 7.96172 3.98806 5.13662 8.4494L1.69941e-06 16.561L8.70695e-07 26.0404L4.19883e-08 35.5197L0.239746 35.7598L0.479393 36L10.5469 36L20.6144 36L20.854 35.7598ZM30.4688 25.7235L30.4688 17.0123L34.7656 10.2474L39.0625 3.48233L39.0625 10.2453L39.0625 17.0083L39.2981 17.2829L39.5338 17.5574L43.9856 17.5847L48.4375 17.6121L48.4375 26.0233L48.4375 34.4346L39.4531 34.4346L30.4688 34.4346L30.4688 25.7235ZM1.5625 25.7235L1.5625 17.0123L5.85938 10.2474L10.1563 3.48233L10.1563 10.2453L10.1563 17.0083L10.3919 17.2829L10.6275 17.5574L15.0794 17.5847L19.5313 17.6121L19.5313 26.0233L19.5313 34.4346L10.5469 34.4346L1.5625 34.4346L1.5625 25.7235Z" fill="#7097FF"/>
</svg>
