<svg width="56" height="56" viewBox="0 0 56 56" fill="none" xmlns="http://www.w3.org/2000/svg">
<path fill-rule="evenodd" clip-rule="evenodd" d="M42.0058 39.6715H13.9942C10.1266 39.6715 6.99125 36.5362 6.99125 32.6686V13.9942C6.99125 10.1266 10.1266 6.99127 13.9942 6.99127H42.0058C45.8734 6.99127 49.0087 10.1266 49.0087 13.9942V32.6686C49.0087 36.5362 45.8734 39.6715 42.0058 39.6715Z" stroke="#00E8B1" stroke-width="1.5" stroke-linecap="round" stroke-linejoin="round"/>
<path d="M32.6686 39.6715L33.8358 49.0087" stroke="#00E8B1" stroke-width="1.5" stroke-linecap="round" stroke-linejoin="round"/>
<path d="M23.3314 39.6715L22.1642 49.0087" stroke="#00E8B1" stroke-width="1.5" stroke-linecap="round" stroke-linejoin="round"/>
<path d="M16.7953 49.0088H39.2047" stroke="#00E8B1" stroke-width="1.5" stroke-linecap="round" stroke-linejoin="round"/>
<path d="M39.1956 23.2869L35.6857 26.7967" stroke="#00E8B1" stroke-width="1.5" stroke-linecap="round" stroke-linejoin="round"/>
<path d="M35.726 19.8181L39.1956 23.2869" stroke="#00E8B1" stroke-width="1.5" stroke-linecap="round" stroke-linejoin="round"/>
<path d="M20.3143 26.8219L16.8044 23.3129" stroke="#00E8B1" stroke-width="1.5" stroke-linecap="round" stroke-linejoin="round"/>
<path d="M20.2743 19.843L16.8044 23.3129" stroke="#00E8B1" stroke-width="1.5" stroke-linecap="round" stroke-linejoin="round"/>
<path d="M29.7682 17.4956L26.2583 29.1671" stroke="#00E8B1" stroke-width="1.5" stroke-linecap="round" stroke-linejoin="round"/>
</svg>
