<svg width="29" height="24" viewBox="0 0 29 24" fill="none" xmlns="http://www.w3.org/2000/svg">
<path d="M21.04 24H16.3507L15.1849 22.0046L14.0183 20.0067L12.8464 18.0002L11.6736 15.9929L10.5017 13.9864L9.32983 15.9929L8.15794 17.9994L6.98344 20.0101H9.33245L10.4974 22.0046L11.6623 24H0L1.16579 22.0046L2.33072 20.0101L3.49564 18.0147L4.66143 16.0202L5.83158 14.0163L7.00347 12.0098L8.17536 10.0042L9.34812 7.99601L10.52 5.99039L11.6919 7.99601L12.8464 9.97261L14.0183 11.9791L15.191 13.9864L16.3629 15.9929L17.5348 17.9994L18.7093 20.0101L19.8742 22.0046L21.04 24Z" fill="#0147FF"/>
<path d="M28.0374 24H23.349L22.1832 22.0046L21.0182 20.0101L19.8533 18.0147L18.6893 16.0228L17.5174 14.0163L16.3455 12.0098L15.1727 10.0025L14.0008 7.99601L12.8464 6.01942L11.6745 4.0138L12.8464 2.00733L14.0191 0L15.191 2.00562L16.3455 3.98307L17.5174 5.98869L18.6901 7.99687L19.862 10.0025L21.0339 12.009L22.2067 14.0163L23.3786 16.0228L24.5417 18.0147L25.7075 20.0101L26.8725 22.0046L28.0374 24Z" fill="#0147FF"/>
</svg>
