<svg width="167" height="100" viewBox="0 0 167 100" fill="none" xmlns="http://www.w3.org/2000/svg">
<g opacity="0.24">
<line x1="6.73539" y1="6.44238" x2="16.7505" y2="16.4575" stroke="#D4D4D8" stroke-width="2.23635" stroke-linecap="round"/>
<line x1="6.44257" y1="16.4576" x2="16.4577" y2="6.44246" stroke="#D4D4D8" stroke-width="2.23635" stroke-linecap="round"/>
<line x1="6.73539" y1="57.1331" x2="16.7505" y2="67.1482" stroke="#D4D4D8" stroke-width="2.23635" stroke-linecap="round"/>
<line x1="6.44257" y1="67.1483" x2="16.4577" y2="57.1331" stroke="#D4D4D8" stroke-width="2.23635" stroke-linecap="round"/>
<line x1="6.73539" y1="31.7878" x2="16.7505" y2="41.803" stroke="#D4D4D8" stroke-width="2.23635" stroke-linecap="round"/>
<line x1="6.44257" y1="41.8029" x2="16.4577" y2="31.7878" stroke="#D4D4D8" stroke-width="2.23635" stroke-linecap="round"/>
<line x1="6.73539" y1="82.4785" x2="16.7505" y2="92.4937" stroke="#D4D4D8" stroke-width="2.23635" stroke-linecap="round"/>
<line x1="6.44257" y1="92.4936" x2="16.4577" y2="82.4785" stroke="#D4D4D8" stroke-width="2.23635" stroke-linecap="round"/>
<line x1="30.201" y1="6.44238" x2="40.2161" y2="16.4575" stroke="#D4D4D8" stroke-width="2.23635" stroke-linecap="round"/>
<line x1="29.908" y1="16.4576" x2="39.9232" y2="6.44246" stroke="#D4D4D8" stroke-width="2.23635" stroke-linecap="round"/>
<line x1="30.201" y1="57.1331" x2="40.2161" y2="67.1482" stroke="#D4D4D8" stroke-width="2.23635" stroke-linecap="round"/>
<line x1="29.908" y1="67.1483" x2="39.9232" y2="57.1331" stroke="#D4D4D8" stroke-width="2.23635" stroke-linecap="round"/>
<line x1="30.2009" y1="31.7885" x2="40.216" y2="41.8036" stroke="#D4D4D8" stroke-width="2.23635" stroke-linecap="round"/>
<line x1="29.908" y1="41.8035" x2="39.9231" y2="31.7884" stroke="#D4D4D8" stroke-width="2.23635" stroke-linecap="round"/>
<line x1="30.201" y1="82.4785" x2="40.2161" y2="92.4937" stroke="#D4D4D8" stroke-width="2.23635" stroke-linecap="round"/>
<line x1="29.908" y1="92.4936" x2="39.9232" y2="82.4785" stroke="#D4D4D8" stroke-width="2.23635" stroke-linecap="round"/>
<line x1="53.6664" y1="6.44251" x2="63.6816" y2="16.4576" stroke="#D4D4D8" stroke-width="2.23635" stroke-linecap="round"/>
<line x1="53.3734" y1="16.4576" x2="63.3886" y2="6.44246" stroke="#D4D4D8" stroke-width="2.23635" stroke-linecap="round"/>
<line x1="53.6664" y1="57.1332" x2="63.6816" y2="67.1483" stroke="#D4D4D8" stroke-width="2.23635" stroke-linecap="round"/>
<line x1="53.3734" y1="67.1483" x2="63.3886" y2="57.1331" stroke="#D4D4D8" stroke-width="2.23635" stroke-linecap="round"/>
<line x1="53.6664" y1="31.7878" x2="63.6816" y2="41.803" stroke="#D4D4D8" stroke-width="2.23635" stroke-linecap="round"/>
<line x1="53.3734" y1="41.8029" x2="63.3886" y2="31.7878" stroke="#D4D4D8" stroke-width="2.23635" stroke-linecap="round"/>
<line x1="53.6664" y1="82.4785" x2="63.6816" y2="92.4937" stroke="#D4D4D8" stroke-width="2.23635" stroke-linecap="round"/>
<line x1="53.3734" y1="92.4936" x2="63.3886" y2="82.4785" stroke="#D4D4D8" stroke-width="2.23635" stroke-linecap="round"/>
<line x1="77.132" y1="6.44238" x2="87.1471" y2="16.4575" stroke="#D4D4D8" stroke-width="2.23635" stroke-linecap="round"/>
<line x1="76.8391" y1="16.4576" x2="86.8542" y2="6.44246" stroke="#D4D4D8" stroke-width="2.23635" stroke-linecap="round"/>
<line x1="77.132" y1="57.1331" x2="87.1471" y2="67.1482" stroke="#D4D4D8" stroke-width="2.23635" stroke-linecap="round"/>
<line x1="76.8391" y1="67.1483" x2="86.8542" y2="57.1331" stroke="#D4D4D8" stroke-width="2.23635" stroke-linecap="round"/>
<line x1="77.1321" y1="31.7878" x2="87.1472" y2="41.803" stroke="#D4D4D8" stroke-width="2.23635" stroke-linecap="round"/>
<line x1="76.8391" y1="41.8029" x2="86.8542" y2="31.7878" stroke="#D4D4D8" stroke-width="2.23635" stroke-linecap="round"/>
<line x1="77.132" y1="82.4784" x2="87.1471" y2="92.4935" stroke="#D4D4D8" stroke-width="2.23635" stroke-linecap="round"/>
<line x1="76.839" y1="92.4935" x2="86.8541" y2="82.4783" stroke="#D4D4D8" stroke-width="2.23635" stroke-linecap="round"/>
<line x1="100.597" y1="6.44238" x2="110.613" y2="16.4575" stroke="#D4D4D8" stroke-width="2.23635" stroke-linecap="round"/>
<line x1="100.304" y1="16.4576" x2="110.32" y2="6.44246" stroke="#D4D4D8" stroke-width="2.23635" stroke-linecap="round"/>
<line x1="100.597" y1="57.1331" x2="110.613" y2="67.1482" stroke="#D4D4D8" stroke-width="2.23635" stroke-linecap="round"/>
<line x1="100.304" y1="67.1483" x2="110.32" y2="57.1331" stroke="#D4D4D8" stroke-width="2.23635" stroke-linecap="round"/>
<line x1="100.597" y1="31.7878" x2="110.613" y2="41.803" stroke="#D4D4D8" stroke-width="2.23635" stroke-linecap="round"/>
<line x1="100.304" y1="41.8029" x2="110.32" y2="31.7878" stroke="#D4D4D8" stroke-width="2.23635" stroke-linecap="round"/>
<line x1="100.597" y1="82.4784" x2="110.613" y2="92.4935" stroke="#D4D4D8" stroke-width="2.23635" stroke-linecap="round"/>
<line x1="100.304" y1="92.4935" x2="110.32" y2="82.4783" stroke="#D4D4D8" stroke-width="2.23635" stroke-linecap="round"/>
<line x1="147.626" y1="6.44238" x2="157.641" y2="16.4575" stroke="#D4D4D8" stroke-width="2.23635" stroke-linecap="round"/>
<line x1="147.333" y1="16.4576" x2="157.348" y2="6.44246" stroke="#D4D4D8" stroke-width="2.23635" stroke-linecap="round"/>
<line x1="147.626" y1="57.1331" x2="157.641" y2="67.1482" stroke="#D4D4D8" stroke-width="2.23635" stroke-linecap="round"/>
<line x1="147.333" y1="67.1483" x2="157.348" y2="57.1331" stroke="#D4D4D8" stroke-width="2.23635" stroke-linecap="round"/>
<line x1="147.626" y1="31.7878" x2="157.641" y2="41.803" stroke="#D4D4D8" stroke-width="2.23635" stroke-linecap="round"/>
<line x1="147.333" y1="41.8029" x2="157.348" y2="31.7878" stroke="#D4D4D8" stroke-width="2.23635" stroke-linecap="round"/>
<line x1="147.626" y1="82.4785" x2="157.641" y2="92.4937" stroke="#D4D4D8" stroke-width="2.23635" stroke-linecap="round"/>
<line x1="147.333" y1="92.4936" x2="157.348" y2="82.4785" stroke="#D4D4D8" stroke-width="2.23635" stroke-linecap="round"/>
<line x1="124.063" y1="6.44238" x2="134.078" y2="16.4575" stroke="#D4D4D8" stroke-width="2.23635" stroke-linecap="round"/>
<line x1="123.77" y1="16.4575" x2="133.785" y2="6.44234" stroke="#D4D4D8" stroke-width="2.23635" stroke-linecap="round"/>
<line x1="124.063" y1="57.1331" x2="134.078" y2="67.1482" stroke="#D4D4D8" stroke-width="2.23635" stroke-linecap="round"/>
<line x1="123.77" y1="67.1482" x2="133.785" y2="57.133" stroke="#D4D4D8" stroke-width="2.23635" stroke-linecap="round"/>
<line x1="124.063" y1="31.7878" x2="134.078" y2="41.803" stroke="#D4D4D8" stroke-width="2.23635" stroke-linecap="round"/>
<line x1="123.77" y1="41.8029" x2="133.785" y2="31.7878" stroke="#D4D4D8" stroke-width="2.23635" stroke-linecap="round"/>
<line x1="124.063" y1="82.4784" x2="134.078" y2="92.4935" stroke="#D4D4D8" stroke-width="2.23635" stroke-linecap="round"/>
<line x1="123.77" y1="92.4935" x2="133.785" y2="82.4783" stroke="#D4D4D8" stroke-width="2.23635" stroke-linecap="round"/>
</g>
</svg>
