<svg width="55" height="56" viewBox="0 0 55 56" fill="none" xmlns="http://www.w3.org/2000/svg">
<g opacity="0.32">
<path opacity="0.5" d="M5.65503 3.71706C5.65503 5.28513 4.38424 6.56519 2.82751 6.56519C1.27079 6.56519 0 5.28513 0 3.71706C0 2.14898 1.27079 0.868927 2.82751 0.868927C4.40012 0.868927 5.65503 2.13298 5.65503 3.71706Z" fill="#D4D4D8"/>
<path opacity="0.5" d="M27.1477 6.56519C28.7093 6.56519 29.9752 5.29004 29.9752 3.71706C29.9752 2.14408 28.7093 0.868927 27.1477 0.868927C25.5861 0.868927 24.3201 2.14408 24.3201 3.71706C24.3201 5.29004 25.5861 6.56519 27.1477 6.56519Z" fill="#D4D4D8"/>
<path opacity="0.5" d="M51.4518 6.56519C53.0135 6.56519 54.2794 5.29004 54.2794 3.71706C54.2794 2.14408 53.0135 0.868927 51.4518 0.868927C49.8902 0.868927 48.6242 2.14408 48.6242 3.71706C48.6242 5.29004 49.8902 6.56519 51.4518 6.56519Z" fill="#D4D4D8"/>
<path opacity="0.5" d="M5.65503 28.1983C5.65503 29.7664 4.38424 31.0464 2.82751 31.0464C1.27079 31.0464 0 29.7664 0 28.1983C0 26.6302 1.27079 25.3502 2.82751 25.3502C4.40012 25.3502 5.65503 26.6302 5.65503 28.1983Z" fill="#D4D4D8"/>
<path opacity="0.5" d="M27.1478 31.0464C28.7093 31.0464 29.9752 29.7713 29.9752 28.1983C29.9752 26.6253 28.7093 25.3502 27.1478 25.3502C25.5862 25.3502 24.3202 26.6253 24.3202 28.1983C24.3202 29.7713 25.5862 31.0464 27.1478 31.0464Z" fill="#D4D4D8"/>
<path opacity="0.5" d="M51.4518 31.0464C53.0134 31.0464 54.2793 29.7713 54.2793 28.1983C54.2793 26.6253 53.0134 25.3502 51.4518 25.3502C49.8901 25.3502 48.6241 26.6253 48.6241 28.1983C48.6241 29.7713 49.8901 31.0464 51.4518 31.0464Z" fill="#D4D4D8"/>
<path opacity="0.5" d="M5.65503 52.6954C5.65503 54.2634 4.38424 55.5435 2.82751 55.5435C1.27079 55.5435 0 54.2634 0 52.6954C0 51.1273 1.27079 49.8472 2.82751 49.8472C4.40012 49.8472 5.65503 51.1273 5.65503 52.6954Z" fill="#D4D4D8"/>
<path opacity="0.5" d="M29.9752 52.6954C29.9752 54.2634 28.7045 55.5435 27.1478 55.5435C25.591 55.5435 24.3202 54.2634 24.3202 52.6954C24.3202 51.1273 25.591 49.8472 27.1478 49.8472C28.7045 49.8472 29.9752 51.1273 29.9752 52.6954Z" fill="#D4D4D8"/>
<path opacity="0.5" d="M54.2793 52.6954C54.2793 54.2634 53.0085 55.5435 51.4518 55.5435C49.895 55.5435 48.6241 54.2634 48.6241 52.6954C48.6241 51.1273 49.895 49.8472 51.4518 49.8472C53.0244 49.8472 54.2793 51.1273 54.2793 52.6954Z" fill="#D4D4D8"/>
</g>
</svg>
