<svg width="37" height="37" viewBox="0 0 37 37" fill="none" xmlns="http://www.w3.org/2000/svg">
<g opacity="0.64">
<path opacity="0.49" fill-rule="evenodd" clip-rule="evenodd" d="M16.5811 7.71572C15.9081 6.20169 14.1352 5.51986 12.6212 6.19282C11.1072 6.86578 10.4253 8.63869 11.0983 10.1527L14.1758 17.0765L7.32184 20.1229C5.80781 20.7959 5.12598 22.5688 5.79894 24.0828C6.4719 25.5969 8.24481 26.2787 9.75884 25.6057L16.6128 22.5593L19.7023 29.5101C20.3752 31.0241 22.1482 31.706 23.6622 31.033C25.1762 30.36 25.858 28.5871 25.1851 27.0731L22.0956 20.1223L28.9763 17.0639C30.4903 16.391 31.1721 14.6181 30.4992 13.104C29.8262 11.59 28.0533 10.9082 26.5393 11.5811L19.6586 14.6395L16.5811 7.71572Z" fill="#D4D4D8"/>
</g>
</svg>
