<svg width="144" height="143" viewBox="0 0 144 143" fill="none" xmlns="http://www.w3.org/2000/svg">
<g clip-path="url(#clip0_278_4876)">
<g opacity="0.64">
<path d="M6.04893 5.50022C6.04893 6.10725 5.55817 6.6039 4.95836 6.6039C4.35856 6.6039 3.8678 6.10725 3.8678 5.50022C3.8678 4.8932 4.35856 4.39655 4.95836 4.39655C5.55817 4.40574 6.04893 4.8932 6.04893 5.50022Z" fill="#D4D4D8"/>
<path d="M17.4817 6.6039C18.084 6.6039 18.5722 6.10977 18.5722 5.50022C18.5722 4.89068 18.084 4.39655 17.4817 4.39655C16.8794 4.39655 16.3911 4.89068 16.3911 5.50022C16.3911 6.10977 16.8794 6.6039 17.4817 6.6039Z" fill="#D4D4D8"/>
<path d="M30.0048 6.6039C30.6071 6.6039 31.0954 6.10977 31.0954 5.50022C31.0954 4.89068 30.6071 4.39655 30.0048 4.39655C29.4025 4.39655 28.9142 4.89068 28.9142 5.50022C28.9142 6.10977 29.4025 6.6039 30.0048 6.6039Z" fill="#D4D4D8"/>
<path d="M42.5372 6.6039C43.1395 6.6039 43.6277 6.10977 43.6277 5.50022C43.6277 4.89068 43.1395 4.39655 42.5372 4.39655C41.9349 4.39655 41.4466 4.89068 41.4466 5.50022C41.4466 6.10977 41.9349 6.6039 42.5372 6.6039Z" fill="#D4D4D8"/>
<path d="M55.0602 6.6039C55.6625 6.6039 56.1508 6.10977 56.1508 5.50022C56.1508 4.89068 55.6625 4.39655 55.0602 4.39655C54.4579 4.39655 53.9697 4.89068 53.9697 5.50022C53.9697 6.10977 54.4579 6.6039 55.0602 6.6039Z" fill="#D4D4D8"/>
<path d="M67.5835 6.6039C68.1858 6.6039 68.674 6.10977 68.674 5.50022C68.674 4.89068 68.1858 4.39655 67.5835 4.39655C66.9812 4.39655 66.4929 4.89068 66.4929 5.50022C66.4929 6.10977 66.9812 6.6039 67.5835 6.6039Z" fill="#D4D4D8"/>
<path d="M80.1067 6.6039C80.709 6.6039 81.1972 6.10977 81.1972 5.50022C81.1972 4.89068 80.709 4.39655 80.1067 4.39655C79.5044 4.39655 79.0161 4.89068 79.0161 5.50022C79.0161 6.10977 79.5044 6.6039 80.1067 6.6039Z" fill="#D4D4D8"/>
<path d="M92.6298 6.6039C93.232 6.6039 93.7203 6.10977 93.7203 5.50022C93.7203 4.89068 93.232 4.39655 92.6298 4.39655C92.0275 4.39655 91.5392 4.89068 91.5392 5.50022C91.5392 6.10977 92.0275 6.6039 92.6298 6.6039Z" fill="#D4D4D8"/>
<path d="M105.153 6.6039C105.755 6.6039 106.244 6.10977 106.244 5.50022C106.244 4.89068 105.755 4.39655 105.153 4.39655C104.551 4.39655 104.062 4.89068 104.062 5.50022C104.062 6.10977 104.551 6.6039 105.153 6.6039Z" fill="#D4D4D8"/>
<path d="M118.767 5.50022C118.767 6.10725 118.276 6.6039 117.676 6.6039C117.076 6.6039 116.586 6.10725 116.586 5.50022C116.586 4.8932 117.076 4.39655 117.676 4.39655C118.285 4.40574 118.767 4.8932 118.767 5.50022Z" fill="#D4D4D8"/>
<path d="M130.209 6.6039C130.811 6.6039 131.299 6.10977 131.299 5.50022C131.299 4.89068 130.811 4.39655 130.209 4.39655C129.606 4.39655 129.118 4.89068 129.118 5.50022C129.118 6.10977 129.606 6.6039 130.209 6.6039Z" fill="#D4D4D8"/>
<path d="M142.732 6.6039C143.334 6.6039 143.822 6.10977 143.822 5.50022C143.822 4.89068 143.334 4.39655 142.732 4.39655C142.129 4.39655 141.641 4.89068 141.641 5.50022C141.641 6.10977 142.129 6.6039 142.732 6.6039Z" fill="#D4D4D8"/>
<path d="M6.04893 17.9074C6.04893 18.5144 5.55817 19.0111 4.95836 19.0111C4.35856 19.0111 3.8678 18.5144 3.8678 17.9074C3.8678 17.3004 4.35856 16.8037 4.95836 16.8037C5.55817 16.8037 6.04893 17.2912 6.04893 17.9074Z" fill="#D4D4D8"/>
<path d="M17.4817 19.0111C18.084 19.0111 18.5722 18.517 18.5722 17.9074C18.5722 17.2979 18.084 16.8037 17.4817 16.8037C16.8794 16.8037 16.3911 17.2979 16.3911 17.9074C16.3911 18.517 16.8794 19.0111 17.4817 19.0111Z" fill="#D4D4D8"/>
<path d="M30.0048 19.0111C30.6071 19.0111 31.0954 18.517 31.0954 17.9074C31.0954 17.2979 30.6071 16.8037 30.0048 16.8037C29.4025 16.8037 28.9142 17.2979 28.9142 17.9074C28.9142 18.517 29.4025 19.0111 30.0048 19.0111Z" fill="#D4D4D8"/>
<path d="M42.5372 19.0111C43.1395 19.0111 43.6277 18.517 43.6277 17.9074C43.6277 17.2979 43.1395 16.8037 42.5372 16.8037C41.9349 16.8037 41.4466 17.2979 41.4466 17.9074C41.4466 18.517 41.9349 19.0111 42.5372 19.0111Z" fill="#D4D4D8"/>
<path d="M55.0602 19.0111C55.6625 19.0111 56.1508 18.517 56.1508 17.9074C56.1508 17.2979 55.6625 16.8037 55.0602 16.8037C54.4579 16.8037 53.9697 17.2979 53.9697 17.9074C53.9697 18.517 54.4579 19.0111 55.0602 19.0111Z" fill="#D4D4D8"/>
<path d="M67.5835 19.0111C68.1858 19.0111 68.674 18.517 68.674 17.9074C68.674 17.2979 68.1858 16.8037 67.5835 16.8037C66.9812 16.8037 66.4929 17.2979 66.4929 17.9074C66.4929 18.517 66.9812 19.0111 67.5835 19.0111Z" fill="#D4D4D8"/>
<path d="M80.1067 19.0111C80.709 19.0111 81.1972 18.517 81.1972 17.9074C81.1972 17.2979 80.709 16.8037 80.1067 16.8037C79.5044 16.8037 79.0161 17.2979 79.0161 17.9074C79.0161 18.517 79.5044 19.0111 80.1067 19.0111Z" fill="#D4D4D8"/>
<path d="M92.6298 19.0111C93.232 19.0111 93.7203 18.517 93.7203 17.9074C93.7203 17.2979 93.232 16.8037 92.6298 16.8037C92.0275 16.8037 91.5392 17.2979 91.5392 17.9074C91.5392 18.517 92.0275 19.0111 92.6298 19.0111Z" fill="#D4D4D8"/>
<path d="M105.153 19.0111C105.755 19.0111 106.244 18.517 106.244 17.9074C106.244 17.2979 105.755 16.8037 105.153 16.8037C104.551 16.8037 104.062 17.2979 104.062 17.9074C104.062 18.517 104.551 19.0111 105.153 19.0111Z" fill="#D4D4D8"/>
<path d="M118.767 17.9074C118.767 18.5144 118.276 19.0111 117.676 19.0111C117.076 19.0111 116.586 18.5144 116.586 17.9074C116.586 17.3004 117.076 16.8037 117.676 16.8037C118.285 16.8037 118.767 17.2912 118.767 17.9074Z" fill="#D4D4D8"/>
<path d="M130.209 19.0111C130.811 19.0111 131.299 18.517 131.299 17.9074C131.299 17.2979 130.811 16.8037 130.209 16.8037C129.606 16.8037 129.118 17.2979 129.118 17.9074C129.118 18.517 129.606 19.0111 130.209 19.0111Z" fill="#D4D4D8"/>
<path d="M142.732 19.0111C143.334 19.0111 143.822 18.517 143.822 17.9074C143.822 17.2979 143.334 16.8037 142.732 16.8037C142.129 16.8037 141.641 17.2979 141.641 17.9074C141.641 18.517 142.129 19.0111 142.732 19.0111Z" fill="#D4D4D8"/>
<path d="M6.04893 30.3055C6.04893 30.9125 5.55817 31.4092 4.95836 31.4092C4.35856 31.4092 3.8678 30.9125 3.8678 30.3055C3.8678 29.6985 4.35856 29.2018 4.95836 29.2018C5.55817 29.2018 6.04893 29.6985 6.04893 30.3055Z" fill="#D4D4D8"/>
<path d="M17.4817 31.4092C18.084 31.4092 18.5722 30.915 18.5722 30.3055C18.5722 29.6959 18.084 29.2018 17.4817 29.2018C16.8794 29.2018 16.3911 29.6959 16.3911 30.3055C16.3911 30.915 16.8794 31.4092 17.4817 31.4092Z" fill="#D4D4D8"/>
<path d="M30.0048 31.4092C30.6071 31.4092 31.0954 30.915 31.0954 30.3055C31.0954 29.6959 30.6071 29.2018 30.0048 29.2018C29.4025 29.2018 28.9142 29.6959 28.9142 30.3055C28.9142 30.915 29.4025 31.4092 30.0048 31.4092Z" fill="#D4D4D8"/>
<path d="M42.5372 31.4092C43.1395 31.4092 43.6277 30.915 43.6277 30.3055C43.6277 29.6959 43.1395 29.2018 42.5372 29.2018C41.9349 29.2018 41.4466 29.6959 41.4466 30.3055C41.4466 30.915 41.9349 31.4092 42.5372 31.4092Z" fill="#D4D4D8"/>
<path d="M55.0602 31.4092C55.6625 31.4092 56.1508 30.915 56.1508 30.3055C56.1508 29.6959 55.6625 29.2018 55.0602 29.2018C54.4579 29.2018 53.9697 29.6959 53.9697 30.3055C53.9697 30.915 54.4579 31.4092 55.0602 31.4092Z" fill="#D4D4D8"/>
<path d="M67.5835 31.4092C68.1858 31.4092 68.674 30.915 68.674 30.3055C68.674 29.6959 68.1858 29.2018 67.5835 29.2018C66.9812 29.2018 66.4929 29.6959 66.4929 30.3055C66.4929 30.915 66.9812 31.4092 67.5835 31.4092Z" fill="#D4D4D8"/>
<path d="M80.1067 31.4092C80.709 31.4092 81.1972 30.915 81.1972 30.3055C81.1972 29.6959 80.709 29.2018 80.1067 29.2018C79.5044 29.2018 79.0161 29.6959 79.0161 30.3055C79.0161 30.915 79.5044 31.4092 80.1067 31.4092Z" fill="#D4D4D8"/>
<path d="M92.6298 31.4092C93.232 31.4092 93.7203 30.915 93.7203 30.3055C93.7203 29.6959 93.232 29.2018 92.6298 29.2018C92.0275 29.2018 91.5392 29.6959 91.5392 30.3055C91.5392 30.915 92.0275 31.4092 92.6298 31.4092Z" fill="#D4D4D8"/>
<path d="M105.153 31.4092C105.755 31.4092 106.244 30.915 106.244 30.3055C106.244 29.6959 105.755 29.2018 105.153 29.2018C104.551 29.2018 104.062 29.6959 104.062 30.3055C104.062 30.915 104.551 31.4092 105.153 31.4092Z" fill="#D4D4D8"/>
<path d="M118.767 30.3055C118.767 30.9125 118.276 31.4092 117.676 31.4092C117.076 31.4092 116.586 30.9125 116.586 30.3055C116.586 29.6985 117.076 29.2018 117.676 29.2018C118.285 29.2018 118.767 29.6985 118.767 30.3055Z" fill="#D4D4D8"/>
<path d="M130.209 31.4092C130.811 31.4092 131.299 30.915 131.299 30.3055C131.299 29.6959 130.811 29.2018 130.209 29.2018C129.606 29.2018 129.118 29.6959 129.118 30.3055C129.118 30.915 129.606 31.4092 130.209 31.4092Z" fill="#D4D4D8"/>
<path d="M142.732 31.4092C143.334 31.4092 143.822 30.915 143.822 30.3055C143.822 29.6959 143.334 29.2018 142.732 29.2018C142.129 29.2018 141.641 29.6959 141.641 30.3055C141.641 30.915 142.129 31.4092 142.732 31.4092Z" fill="#D4D4D8"/>
<path d="M6.04893 42.7035C6.04893 43.3105 5.55817 43.8072 4.95836 43.8072C4.35856 43.8072 3.8678 43.3105 3.8678 42.7035C3.8678 42.0965 4.35856 41.5998 4.95836 41.5998C5.55817 41.5998 6.04893 42.0965 6.04893 42.7035Z" fill="#D4D4D8"/>
<path d="M17.4817 43.8072C18.084 43.8072 18.5722 43.3131 18.5722 42.7035C18.5722 42.094 18.084 41.5998 17.4817 41.5998C16.8794 41.5998 16.3911 42.094 16.3911 42.7035C16.3911 43.3131 16.8794 43.8072 17.4817 43.8072Z" fill="#D4D4D8"/>
<path d="M30.0048 43.8072C30.6071 43.8072 31.0954 43.3131 31.0954 42.7035C31.0954 42.094 30.6071 41.5998 30.0048 41.5998C29.4025 41.5998 28.9142 42.094 28.9142 42.7035C28.9142 43.3131 29.4025 43.8072 30.0048 43.8072Z" fill="#D4D4D8"/>
<path d="M42.5372 43.8072C43.1395 43.8072 43.6277 43.3131 43.6277 42.7035C43.6277 42.094 43.1395 41.5998 42.5372 41.5998C41.9349 41.5998 41.4466 42.094 41.4466 42.7035C41.4466 43.3131 41.9349 43.8072 42.5372 43.8072Z" fill="#D4D4D8"/>
<path d="M55.0602 43.8072C55.6625 43.8072 56.1508 43.3131 56.1508 42.7035C56.1508 42.094 55.6625 41.5998 55.0602 41.5998C54.4579 41.5998 53.9697 42.094 53.9697 42.7035C53.9697 43.3131 54.4579 43.8072 55.0602 43.8072Z" fill="#D4D4D8"/>
<path d="M67.5835 43.8072C68.1858 43.8072 68.674 43.3131 68.674 42.7035C68.674 42.094 68.1858 41.5998 67.5835 41.5998C66.9812 41.5998 66.4929 42.094 66.4929 42.7035C66.4929 43.3131 66.9812 43.8072 67.5835 43.8072Z" fill="#D4D4D8"/>
<path d="M80.1067 43.8072C80.709 43.8072 81.1972 43.3131 81.1972 42.7035C81.1972 42.094 80.709 41.5998 80.1067 41.5998C79.5044 41.5998 79.0161 42.094 79.0161 42.7035C79.0161 43.3131 79.5044 43.8072 80.1067 43.8072Z" fill="#D4D4D8"/>
<path d="M92.6298 43.8072C93.232 43.8072 93.7203 43.3131 93.7203 42.7035C93.7203 42.094 93.232 41.5998 92.6298 41.5998C92.0275 41.5998 91.5392 42.094 91.5392 42.7035C91.5392 43.3131 92.0275 43.8072 92.6298 43.8072Z" fill="#D4D4D8"/>
<path d="M105.153 43.8072C105.755 43.8072 106.244 43.3131 106.244 42.7035C106.244 42.094 105.755 41.5998 105.153 41.5998C104.551 41.5998 104.062 42.094 104.062 42.7035C104.062 43.3131 104.551 43.8072 105.153 43.8072Z" fill="#D4D4D8"/>
<path d="M118.767 42.7035C118.767 43.3105 118.276 43.8072 117.676 43.8072C117.076 43.8072 116.586 43.3105 116.586 42.7035C116.586 42.0965 117.076 41.5998 117.676 41.5998C118.285 41.5998 118.767 42.0965 118.767 42.7035Z" fill="#D4D4D8"/>
<path d="M130.209 43.8072C130.811 43.8072 131.299 43.3131 131.299 42.7035C131.299 42.094 130.811 41.5998 130.209 41.5998C129.606 41.5998 129.118 42.094 129.118 42.7035C129.118 43.3131 129.606 43.8072 130.209 43.8072Z" fill="#D4D4D8"/>
<path d="M142.732 43.8072C143.334 43.8072 143.822 43.3131 143.822 42.7035C143.822 42.094 143.334 41.5998 142.732 41.5998C142.129 41.5998 141.641 42.094 141.641 42.7035C141.641 43.3131 142.129 43.8072 142.732 43.8072Z" fill="#D4D4D8"/>
<path d="M6.04893 55.1014C6.04893 55.7085 5.55817 56.2051 4.95836 56.2051C4.35856 56.2051 3.8678 55.7085 3.8678 55.1014C3.8678 54.4944 4.35856 53.9977 4.95836 53.9977C5.55817 53.9977 6.04893 54.4944 6.04893 55.1014Z" fill="#D4D4D8"/>
<path d="M17.4817 56.2051C18.084 56.2051 18.5722 55.711 18.5722 55.1014C18.5722 54.4919 18.084 53.9977 17.4817 53.9977C16.8794 53.9977 16.3911 54.4919 16.3911 55.1014C16.3911 55.711 16.8794 56.2051 17.4817 56.2051Z" fill="#D4D4D8"/>
<path d="M30.0048 56.2051C30.6071 56.2051 31.0954 55.711 31.0954 55.1014C31.0954 54.4919 30.6071 53.9977 30.0048 53.9977C29.4025 53.9977 28.9142 54.4919 28.9142 55.1014C28.9142 55.711 29.4025 56.2051 30.0048 56.2051Z" fill="#D4D4D8"/>
<path d="M42.5372 56.2051C43.1395 56.2051 43.6277 55.711 43.6277 55.1014C43.6277 54.4919 43.1395 53.9977 42.5372 53.9977C41.9349 53.9977 41.4466 54.4919 41.4466 55.1014C41.4466 55.711 41.9349 56.2051 42.5372 56.2051Z" fill="#D4D4D8"/>
<path d="M55.0602 56.2051C55.6625 56.2051 56.1508 55.711 56.1508 55.1014C56.1508 54.4919 55.6625 53.9977 55.0602 53.9977C54.4579 53.9977 53.9697 54.4919 53.9697 55.1014C53.9697 55.711 54.4579 56.2051 55.0602 56.2051Z" fill="#D4D4D8"/>
<path d="M67.5835 56.2051C68.1858 56.2051 68.674 55.711 68.674 55.1014C68.674 54.4919 68.1858 53.9977 67.5835 53.9977C66.9812 53.9977 66.4929 54.4919 66.4929 55.1014C66.4929 55.711 66.9812 56.2051 67.5835 56.2051Z" fill="#D4D4D8"/>
<path d="M80.1067 56.2051C80.709 56.2051 81.1972 55.711 81.1972 55.1014C81.1972 54.4919 80.709 53.9977 80.1067 53.9977C79.5044 53.9977 79.0161 54.4919 79.0161 55.1014C79.0161 55.711 79.5044 56.2051 80.1067 56.2051Z" fill="#D4D4D8"/>
<path d="M92.6298 56.2051C93.232 56.2051 93.7203 55.711 93.7203 55.1014C93.7203 54.4919 93.232 53.9977 92.6298 53.9977C92.0275 53.9977 91.5392 54.4919 91.5392 55.1014C91.5392 55.711 92.0275 56.2051 92.6298 56.2051Z" fill="#D4D4D8"/>
<path d="M105.153 56.2051C105.755 56.2051 106.244 55.711 106.244 55.1014C106.244 54.4919 105.755 53.9977 105.153 53.9977C104.551 53.9977 104.062 54.4919 104.062 55.1014C104.062 55.711 104.551 56.2051 105.153 56.2051Z" fill="#D4D4D8"/>
<path d="M118.767 55.1014C118.767 55.7085 118.276 56.2051 117.676 56.2051C117.076 56.2051 116.586 55.7085 116.586 55.1014C116.586 54.4944 117.076 53.9977 117.676 53.9977C118.285 53.9977 118.767 54.4944 118.767 55.1014Z" fill="#D4D4D8"/>
<path d="M130.209 56.2051C130.811 56.2051 131.299 55.711 131.299 55.1014C131.299 54.4919 130.811 53.9977 130.209 53.9977C129.606 53.9977 129.118 54.4919 129.118 55.1014C129.118 55.711 129.606 56.2051 130.209 56.2051Z" fill="#D4D4D8"/>
<path d="M142.732 56.2051C143.334 56.2051 143.822 55.711 143.822 55.1014C143.822 54.4919 143.334 53.9977 142.732 53.9977C142.129 53.9977 141.641 54.4919 141.641 55.1014C141.641 55.711 142.129 56.2051 142.732 56.2051Z" fill="#D4D4D8"/>
<path d="M6.04893 67.4995C6.04893 68.1065 5.55817 68.6032 4.95836 68.6032C4.35856 68.6032 3.8678 68.1065 3.8678 67.4995C3.8678 66.8924 4.35856 66.3958 4.95836 66.3958C5.55817 66.405 6.04893 66.8924 6.04893 67.4995Z" fill="#D4D4D8"/>
<path d="M17.4817 68.6032C18.084 68.6032 18.5722 68.109 18.5722 67.4995C18.5722 66.8899 18.084 66.3958 17.4817 66.3958C16.8794 66.3958 16.3911 66.8899 16.3911 67.4995C16.3911 68.109 16.8794 68.6032 17.4817 68.6032Z" fill="#D4D4D8"/>
<path d="M30.0048 68.6032C30.6071 68.6032 31.0954 68.109 31.0954 67.4995C31.0954 66.8899 30.6071 66.3958 30.0048 66.3958C29.4025 66.3958 28.9142 66.8899 28.9142 67.4995C28.9142 68.109 29.4025 68.6032 30.0048 68.6032Z" fill="#D4D4D8"/>
<path d="M42.5372 68.6032C43.1395 68.6032 43.6277 68.109 43.6277 67.4995C43.6277 66.8899 43.1395 66.3958 42.5372 66.3958C41.9349 66.3958 41.4466 66.8899 41.4466 67.4995C41.4466 68.109 41.9349 68.6032 42.5372 68.6032Z" fill="#D4D4D8"/>
<path d="M55.0602 68.6032C55.6625 68.6032 56.1508 68.109 56.1508 67.4995C56.1508 66.8899 55.6625 66.3958 55.0602 66.3958C54.4579 66.3958 53.9697 66.8899 53.9697 67.4995C53.9697 68.109 54.4579 68.6032 55.0602 68.6032Z" fill="#D4D4D8"/>
<path d="M67.5835 68.6032C68.1858 68.6032 68.674 68.109 68.674 67.4995C68.674 66.8899 68.1858 66.3958 67.5835 66.3958C66.9812 66.3958 66.4929 66.8899 66.4929 67.4995C66.4929 68.109 66.9812 68.6032 67.5835 68.6032Z" fill="#D4D4D8"/>
<path d="M80.1067 68.6032C80.709 68.6032 81.1972 68.109 81.1972 67.4995C81.1972 66.8899 80.709 66.3958 80.1067 66.3958C79.5044 66.3958 79.0161 66.8899 79.0161 67.4995C79.0161 68.109 79.5044 68.6032 80.1067 68.6032Z" fill="#D4D4D8"/>
<path d="M92.6298 68.6032C93.232 68.6032 93.7203 68.109 93.7203 67.4995C93.7203 66.8899 93.232 66.3958 92.6298 66.3958C92.0275 66.3958 91.5392 66.8899 91.5392 67.4995C91.5392 68.109 92.0275 68.6032 92.6298 68.6032Z" fill="#D4D4D8"/>
<path d="M105.153 68.6032C105.755 68.6032 106.244 68.109 106.244 67.4995C106.244 66.8899 105.755 66.3958 105.153 66.3958C104.551 66.3958 104.062 66.8899 104.062 67.4995C104.062 68.109 104.551 68.6032 105.153 68.6032Z" fill="#D4D4D8"/>
<path d="M118.767 67.4995C118.767 68.1065 118.276 68.6032 117.676 68.6032C117.076 68.6032 116.586 68.1065 116.586 67.4995C116.586 66.8924 117.076 66.3958 117.676 66.3958C118.285 66.405 118.767 66.8924 118.767 67.4995Z" fill="#D4D4D8"/>
<path d="M130.209 68.6032C130.811 68.6032 131.299 68.109 131.299 67.4995C131.299 66.8899 130.811 66.3958 130.209 66.3958C129.606 66.3958 129.118 66.8899 129.118 67.4995C129.118 68.109 129.606 68.6032 130.209 68.6032Z" fill="#D4D4D8"/>
<path d="M142.732 68.6032C143.334 68.6032 143.822 68.109 143.822 67.4995C143.822 66.8899 143.334 66.3958 142.732 66.3958C142.129 66.3958 141.641 66.8899 141.641 67.4995C141.641 68.109 142.129 68.6032 142.732 68.6032Z" fill="#D4D4D8"/>
<path d="M6.04893 79.9067C6.04893 80.5137 5.55817 81.0104 4.95836 81.0104C4.35856 81.0104 3.8678 80.5137 3.8678 79.9067C3.8678 79.2997 4.35856 78.803 4.95836 78.803C5.55817 78.803 6.04893 79.2905 6.04893 79.9067Z" fill="#D4D4D8"/>
<path d="M17.4817 81.0104C18.084 81.0104 18.5722 80.5162 18.5722 79.9067C18.5722 79.2971 18.084 78.803 17.4817 78.803C16.8794 78.803 16.3911 79.2971 16.3911 79.9067C16.3911 80.5162 16.8794 81.0104 17.4817 81.0104Z" fill="#D4D4D8"/>
<path d="M30.0048 81.0104C30.6071 81.0104 31.0954 80.5162 31.0954 79.9067C31.0954 79.2971 30.6071 78.803 30.0048 78.803C29.4025 78.803 28.9142 79.2971 28.9142 79.9067C28.9142 80.5162 29.4025 81.0104 30.0048 81.0104Z" fill="#D4D4D8"/>
<path d="M42.5372 81.0104C43.1395 81.0104 43.6277 80.5162 43.6277 79.9067C43.6277 79.2971 43.1395 78.803 42.5372 78.803C41.9349 78.803 41.4466 79.2971 41.4466 79.9067C41.4466 80.5162 41.9349 81.0104 42.5372 81.0104Z" fill="#D4D4D8"/>
<path d="M55.0602 81.0104C55.6625 81.0104 56.1508 80.5162 56.1508 79.9067C56.1508 79.2971 55.6625 78.803 55.0602 78.803C54.4579 78.803 53.9697 79.2971 53.9697 79.9067C53.9697 80.5162 54.4579 81.0104 55.0602 81.0104Z" fill="#D4D4D8"/>
<path d="M67.5835 81.0104C68.1858 81.0104 68.674 80.5162 68.674 79.9067C68.674 79.2971 68.1858 78.803 67.5835 78.803C66.9812 78.803 66.4929 79.2971 66.4929 79.9067C66.4929 80.5162 66.9812 81.0104 67.5835 81.0104Z" fill="#D4D4D8"/>
<path d="M80.1067 81.0104C80.709 81.0104 81.1972 80.5162 81.1972 79.9067C81.1972 79.2971 80.709 78.803 80.1067 78.803C79.5044 78.803 79.0161 79.2971 79.0161 79.9067C79.0161 80.5162 79.5044 81.0104 80.1067 81.0104Z" fill="#D4D4D8"/>
<path d="M92.6298 81.0104C93.232 81.0104 93.7203 80.5162 93.7203 79.9067C93.7203 79.2971 93.232 78.803 92.6298 78.803C92.0275 78.803 91.5392 79.2971 91.5392 79.9067C91.5392 80.5162 92.0275 81.0104 92.6298 81.0104Z" fill="#D4D4D8"/>
<path d="M105.153 81.0104C105.755 81.0104 106.244 80.5162 106.244 79.9067C106.244 79.2971 105.755 78.803 105.153 78.803C104.551 78.803 104.062 79.2971 104.062 79.9067C104.062 80.5162 104.551 81.0104 105.153 81.0104Z" fill="#D4D4D8"/>
<path d="M118.767 79.9067C118.767 80.5137 118.276 81.0104 117.676 81.0104C117.076 81.0104 116.586 80.5137 116.586 79.9067C116.586 79.2997 117.076 78.803 117.676 78.803C118.285 78.803 118.767 79.2905 118.767 79.9067Z" fill="#D4D4D8"/>
<path d="M130.209 81.0104C130.811 81.0104 131.299 80.5162 131.299 79.9067C131.299 79.2971 130.811 78.803 130.209 78.803C129.606 78.803 129.118 79.2971 129.118 79.9067C129.118 80.5162 129.606 81.0104 130.209 81.0104Z" fill="#D4D4D8"/>
<path d="M142.732 81.0104C143.334 81.0104 143.822 80.5162 143.822 79.9067C143.822 79.2971 143.334 78.803 142.732 78.803C142.129 78.803 141.641 79.2971 141.641 79.9067C141.641 80.5162 142.129 81.0104 142.732 81.0104Z" fill="#D4D4D8"/>
<path d="M6.04893 92.3046C6.04893 92.9116 5.55817 93.4083 4.95836 93.4083C4.35856 93.4083 3.8678 92.9116 3.8678 92.3046C3.8678 91.6976 4.35856 91.201 4.95836 91.201C5.55817 91.201 6.04893 91.6976 6.04893 92.3046Z" fill="#D4D4D8"/>
<path d="M17.4817 93.4083C18.084 93.4083 18.5722 92.9142 18.5722 92.3046C18.5722 91.6951 18.084 91.201 17.4817 91.201C16.8794 91.201 16.3911 91.6951 16.3911 92.3046C16.3911 92.9142 16.8794 93.4083 17.4817 93.4083Z" fill="#D4D4D8"/>
<path d="M30.0048 93.4083C30.6071 93.4083 31.0954 92.9142 31.0954 92.3046C31.0954 91.6951 30.6071 91.201 30.0048 91.201C29.4025 91.201 28.9142 91.6951 28.9142 92.3046C28.9142 92.9142 29.4025 93.4083 30.0048 93.4083Z" fill="#D4D4D8"/>
<path d="M42.5372 93.4083C43.1395 93.4083 43.6277 92.9142 43.6277 92.3046C43.6277 91.6951 43.1395 91.201 42.5372 91.201C41.9349 91.201 41.4466 91.6951 41.4466 92.3046C41.4466 92.9142 41.9349 93.4083 42.5372 93.4083Z" fill="#D4D4D8"/>
<path d="M55.0602 93.4083C55.6625 93.4083 56.1508 92.9142 56.1508 92.3046C56.1508 91.6951 55.6625 91.201 55.0602 91.201C54.4579 91.201 53.9697 91.6951 53.9697 92.3046C53.9697 92.9142 54.4579 93.4083 55.0602 93.4083Z" fill="#D4D4D8"/>
<path d="M67.5835 93.4083C68.1858 93.4083 68.674 92.9142 68.674 92.3046C68.674 91.6951 68.1858 91.201 67.5835 91.201C66.9812 91.201 66.4929 91.6951 66.4929 92.3046C66.4929 92.9142 66.9812 93.4083 67.5835 93.4083Z" fill="#D4D4D8"/>
<path d="M80.1067 93.4083C80.709 93.4083 81.1972 92.9142 81.1972 92.3046C81.1972 91.6951 80.709 91.201 80.1067 91.201C79.5044 91.201 79.0161 91.6951 79.0161 92.3046C79.0161 92.9142 79.5044 93.4083 80.1067 93.4083Z" fill="#D4D4D8"/>
<path d="M92.6298 93.4083C93.232 93.4083 93.7203 92.9142 93.7203 92.3046C93.7203 91.6951 93.232 91.201 92.6298 91.201C92.0275 91.201 91.5392 91.6951 91.5392 92.3046C91.5392 92.9142 92.0275 93.4083 92.6298 93.4083Z" fill="#D4D4D8"/>
<path d="M105.153 93.4083C105.755 93.4083 106.244 92.9142 106.244 92.3046C106.244 91.6951 105.755 91.201 105.153 91.201C104.551 91.201 104.062 91.6951 104.062 92.3046C104.062 92.9142 104.551 93.4083 105.153 93.4083Z" fill="#D4D4D8"/>
<path d="M118.767 92.3046C118.767 92.9116 118.276 93.4083 117.676 93.4083C117.076 93.4083 116.586 92.9116 116.586 92.3046C116.586 91.6976 117.076 91.201 117.676 91.201C118.285 91.201 118.767 91.6976 118.767 92.3046Z" fill="#D4D4D8"/>
<path d="M130.209 93.4083C130.811 93.4083 131.299 92.9142 131.299 92.3046C131.299 91.6951 130.811 91.201 130.209 91.201C129.606 91.201 129.118 91.6951 129.118 92.3046C129.118 92.9142 129.606 93.4083 130.209 93.4083Z" fill="#D4D4D8"/>
<path d="M142.732 93.4083C143.334 93.4083 143.822 92.9142 143.822 92.3046C143.822 91.6951 143.334 91.201 142.732 91.201C142.129 91.201 141.641 91.6951 141.641 92.3046C141.641 92.9142 142.129 93.4083 142.732 93.4083Z" fill="#D4D4D8"/>
<path d="M6.04893 104.703C6.04893 105.31 5.55817 105.806 4.95836 105.806C4.35856 105.806 3.8678 105.31 3.8678 104.703C3.8678 104.096 4.35856 103.599 4.95836 103.599C5.55817 103.599 6.04893 104.096 6.04893 104.703Z" fill="#D4D4D8"/>
<path d="M17.4817 105.806C18.084 105.806 18.5722 105.312 18.5722 104.703C18.5722 104.093 18.084 103.599 17.4817 103.599C16.8794 103.599 16.3911 104.093 16.3911 104.703C16.3911 105.312 16.8794 105.806 17.4817 105.806Z" fill="#D4D4D8"/>
<path d="M30.0048 105.806C30.6071 105.806 31.0954 105.312 31.0954 104.703C31.0954 104.093 30.6071 103.599 30.0048 103.599C29.4025 103.599 28.9142 104.093 28.9142 104.703C28.9142 105.312 29.4025 105.806 30.0048 105.806Z" fill="#D4D4D8"/>
<path d="M42.5372 105.806C43.1395 105.806 43.6277 105.312 43.6277 104.703C43.6277 104.093 43.1395 103.599 42.5372 103.599C41.9349 103.599 41.4466 104.093 41.4466 104.703C41.4466 105.312 41.9349 105.806 42.5372 105.806Z" fill="#D4D4D8"/>
<path d="M55.0602 105.806C55.6625 105.806 56.1508 105.312 56.1508 104.703C56.1508 104.093 55.6625 103.599 55.0602 103.599C54.4579 103.599 53.9697 104.093 53.9697 104.703C53.9697 105.312 54.4579 105.806 55.0602 105.806Z" fill="#D4D4D8"/>
<path d="M67.5835 105.806C68.1858 105.806 68.674 105.312 68.674 104.703C68.674 104.093 68.1858 103.599 67.5835 103.599C66.9812 103.599 66.4929 104.093 66.4929 104.703C66.4929 105.312 66.9812 105.806 67.5835 105.806Z" fill="#D4D4D8"/>
<path d="M80.1067 105.806C80.709 105.806 81.1972 105.312 81.1972 104.703C81.1972 104.093 80.709 103.599 80.1067 103.599C79.5044 103.599 79.0161 104.093 79.0161 104.703C79.0161 105.312 79.5044 105.806 80.1067 105.806Z" fill="#D4D4D8"/>
<path d="M92.6298 105.806C93.232 105.806 93.7203 105.312 93.7203 104.703C93.7203 104.093 93.232 103.599 92.6298 103.599C92.0275 103.599 91.5392 104.093 91.5392 104.703C91.5392 105.312 92.0275 105.806 92.6298 105.806Z" fill="#D4D4D8"/>
<path d="M105.153 105.806C105.755 105.806 106.244 105.312 106.244 104.703C106.244 104.093 105.755 103.599 105.153 103.599C104.551 103.599 104.062 104.093 104.062 104.703C104.062 105.312 104.551 105.806 105.153 105.806Z" fill="#D4D4D8"/>
<path d="M118.767 104.703C118.767 105.31 118.276 105.806 117.676 105.806C117.076 105.806 116.586 105.31 116.586 104.703C116.586 104.096 117.076 103.599 117.676 103.599C118.285 103.599 118.767 104.096 118.767 104.703Z" fill="#D4D4D8"/>
<path d="M130.209 105.806C130.811 105.806 131.299 105.312 131.299 104.703C131.299 104.093 130.811 103.599 130.209 103.599C129.606 103.599 129.118 104.093 129.118 104.703C129.118 105.312 129.606 105.806 130.209 105.806Z" fill="#D4D4D8"/>
<path d="M142.732 105.806C143.334 105.806 143.822 105.312 143.822 104.703C143.822 104.093 143.334 103.599 142.732 103.599C142.129 103.599 141.641 104.093 141.641 104.703C141.641 105.312 142.129 105.806 142.732 105.806Z" fill="#D4D4D8"/>
<path d="M6.04893 117.101C6.04893 117.708 5.55817 118.204 4.95836 118.204C4.35856 118.204 3.8678 117.708 3.8678 117.101C3.8678 116.494 4.35856 115.997 4.95836 115.997C5.55817 115.997 6.04893 116.494 6.04893 117.101Z" fill="#D4D4D8"/>
<path d="M17.4817 118.204C18.084 118.204 18.5722 117.71 18.5722 117.101C18.5722 116.491 18.084 115.997 17.4817 115.997C16.8794 115.997 16.3911 116.491 16.3911 117.101C16.3911 117.71 16.8794 118.204 17.4817 118.204Z" fill="#D4D4D8"/>
<path d="M30.0048 118.204C30.6071 118.204 31.0954 117.71 31.0954 117.101C31.0954 116.491 30.6071 115.997 30.0048 115.997C29.4025 115.997 28.9142 116.491 28.9142 117.101C28.9142 117.71 29.4025 118.204 30.0048 118.204Z" fill="#D4D4D8"/>
<path d="M42.5372 118.204C43.1395 118.204 43.6277 117.71 43.6277 117.101C43.6277 116.491 43.1395 115.997 42.5372 115.997C41.9349 115.997 41.4466 116.491 41.4466 117.101C41.4466 117.71 41.9349 118.204 42.5372 118.204Z" fill="#D4D4D8"/>
<path d="M55.0602 118.204C55.6625 118.204 56.1508 117.71 56.1508 117.101C56.1508 116.491 55.6625 115.997 55.0602 115.997C54.4579 115.997 53.9697 116.491 53.9697 117.101C53.9697 117.71 54.4579 118.204 55.0602 118.204Z" fill="#D4D4D8"/>
<path d="M67.5835 118.204C68.1858 118.204 68.674 117.71 68.674 117.101C68.674 116.491 68.1858 115.997 67.5835 115.997C66.9812 115.997 66.4929 116.491 66.4929 117.101C66.4929 117.71 66.9812 118.204 67.5835 118.204Z" fill="#D4D4D8"/>
<path d="M80.1067 118.204C80.709 118.204 81.1972 117.71 81.1972 117.101C81.1972 116.491 80.709 115.997 80.1067 115.997C79.5044 115.997 79.0161 116.491 79.0161 117.101C79.0161 117.71 79.5044 118.204 80.1067 118.204Z" fill="#D4D4D8"/>
<path d="M92.6298 118.204C93.232 118.204 93.7203 117.71 93.7203 117.101C93.7203 116.491 93.232 115.997 92.6298 115.997C92.0275 115.997 91.5392 116.491 91.5392 117.101C91.5392 117.71 92.0275 118.204 92.6298 118.204Z" fill="#D4D4D8"/>
<path d="M105.153 118.204C105.755 118.204 106.244 117.71 106.244 117.101C106.244 116.491 105.755 115.997 105.153 115.997C104.551 115.997 104.062 116.491 104.062 117.101C104.062 117.71 104.551 118.204 105.153 118.204Z" fill="#D4D4D8"/>
<path d="M118.767 117.101C118.767 117.708 118.276 118.204 117.676 118.204C117.076 118.204 116.586 117.708 116.586 117.101C116.586 116.494 117.076 115.997 117.676 115.997C118.285 115.997 118.767 116.494 118.767 117.101Z" fill="#D4D4D8"/>
<path d="M130.209 118.204C130.811 118.204 131.299 117.71 131.299 117.101C131.299 116.491 130.811 115.997 130.209 115.997C129.606 115.997 129.118 116.491 129.118 117.101C129.118 117.71 129.606 118.204 130.209 118.204Z" fill="#D4D4D8"/>
<path d="M142.732 118.204C143.334 118.204 143.822 117.71 143.822 117.101C143.822 116.491 143.334 115.997 142.732 115.997C142.129 115.997 141.641 116.491 141.641 117.101C141.641 117.71 142.129 118.204 142.732 118.204Z" fill="#D4D4D8"/>
<path d="M6.04893 129.499C6.04893 130.106 5.55817 130.602 4.95836 130.602C4.35856 130.602 3.8678 130.106 3.8678 129.499C3.8678 128.892 4.35856 128.395 4.95836 128.395C5.55817 128.404 6.04893 128.892 6.04893 129.499Z" fill="#D4D4D8"/>
<path d="M18.5722 129.499C18.5722 130.106 18.0815 130.602 17.4817 130.602C16.8819 130.602 16.3911 130.106 16.3911 129.499C16.3911 128.892 16.8819 128.395 17.4817 128.395C18.0815 128.404 18.5722 128.892 18.5722 129.499Z" fill="#D4D4D8"/>
<path d="M31.0954 129.499C31.0954 130.106 30.6046 130.602 30.0048 130.602C29.405 130.602 28.9142 130.106 28.9142 129.499C28.9142 128.892 29.405 128.395 30.0048 128.395C30.6137 128.404 31.0954 128.892 31.0954 129.499Z" fill="#D4D4D8"/>
<path d="M43.6186 129.499C43.6186 130.106 43.1279 130.602 42.5281 130.602C41.9283 130.602 41.4375 130.106 41.4375 129.499C41.4375 128.892 41.9283 128.395 42.5281 128.395C43.137 128.404 43.6186 128.892 43.6186 129.499Z" fill="#D4D4D8"/>
<path d="M56.1508 129.499C56.1508 130.106 55.66 130.602 55.0602 130.602C54.4604 130.602 53.9697 130.106 53.9697 129.499C53.9697 128.892 54.4604 128.395 55.0602 128.395C55.66 128.404 56.1508 128.892 56.1508 129.499Z" fill="#D4D4D8"/>
<path d="M68.674 129.499C68.674 130.106 68.1833 130.602 67.5835 130.602C66.9837 130.602 66.4929 130.106 66.4929 129.499C66.4929 128.892 66.9837 128.395 67.5835 128.395C68.1833 128.404 68.674 128.892 68.674 129.499Z" fill="#D4D4D8"/>
<path d="M81.1972 129.499C81.1972 130.106 80.7065 130.602 80.1067 130.602C79.5069 130.602 79.0161 130.106 79.0161 129.499C79.0161 128.892 79.5069 128.395 80.1067 128.395C80.7065 128.404 81.1972 128.892 81.1972 129.499Z" fill="#D4D4D8"/>
<path d="M93.7203 129.499C93.7203 130.106 93.2296 130.602 92.6298 130.602C92.0299 130.602 91.5392 130.106 91.5392 129.499C91.5392 128.892 92.0299 128.395 92.6298 128.395C93.2296 128.404 93.7203 128.892 93.7203 129.499Z" fill="#D4D4D8"/>
<path d="M106.244 129.499C106.244 130.106 105.753 130.602 105.153 130.602C104.553 130.602 104.062 130.106 104.062 129.499C104.062 128.892 104.553 128.395 105.153 128.395C105.762 128.404 106.244 128.892 106.244 129.499Z" fill="#D4D4D8"/>
<path d="M118.767 129.499C118.767 130.106 118.276 130.602 117.676 130.602C117.076 130.602 116.586 130.106 116.586 129.499C116.586 128.892 117.076 128.395 117.676 128.395C118.285 128.404 118.767 128.892 118.767 129.499Z" fill="#D4D4D8"/>
<path d="M131.299 129.499C131.299 130.106 130.808 130.602 130.209 130.602C129.609 130.602 129.118 130.106 129.118 129.499C129.118 128.892 129.609 128.395 130.209 128.395C130.808 128.404 131.299 128.892 131.299 129.499Z" fill="#D4D4D8"/>
<path d="M143.822 129.499C143.822 130.106 143.331 130.602 142.732 130.602C142.132 130.602 141.641 130.106 141.641 129.499C141.641 128.892 142.132 128.395 142.732 128.395C143.331 128.404 143.822 128.892 143.822 129.499Z" fill="#D4D4D8"/>
<path d="M6.04893 141.906C6.04893 142.513 5.55817 143.01 4.95836 143.01C4.35856 143.01 3.8678 142.513 3.8678 141.906C3.8678 141.299 4.35856 140.802 4.95836 140.802C5.55817 140.802 6.04893 141.29 6.04893 141.906Z" fill="#D4D4D8"/>
<path d="M17.4817 143.01C18.084 143.01 18.5722 142.516 18.5722 141.906C18.5722 141.296 18.084 140.802 17.4817 140.802C16.8794 140.802 16.3911 141.296 16.3911 141.906C16.3911 142.516 16.8794 143.01 17.4817 143.01Z" fill="#D4D4D8"/>
<path d="M30.0048 143.01C30.6071 143.01 31.0954 142.516 31.0954 141.906C31.0954 141.296 30.6071 140.802 30.0048 140.802C29.4025 140.802 28.9142 141.296 28.9142 141.906C28.9142 142.516 29.4025 143.01 30.0048 143.01Z" fill="#D4D4D8"/>
<path d="M42.5372 143.01C43.1395 143.01 43.6277 142.516 43.6277 141.906C43.6277 141.296 43.1395 140.802 42.5372 140.802C41.9349 140.802 41.4466 141.296 41.4466 141.906C41.4466 142.516 41.9349 143.01 42.5372 143.01Z" fill="#D4D4D8"/>
<path d="M55.0602 143.01C55.6625 143.01 56.1508 142.516 56.1508 141.906C56.1508 141.296 55.6625 140.802 55.0602 140.802C54.4579 140.802 53.9697 141.296 53.9697 141.906C53.9697 142.516 54.4579 143.01 55.0602 143.01Z" fill="#D4D4D8"/>
<path d="M67.5835 143.01C68.1858 143.01 68.674 142.516 68.674 141.906C68.674 141.296 68.1858 140.802 67.5835 140.802C66.9812 140.802 66.4929 141.296 66.4929 141.906C66.4929 142.516 66.9812 143.01 67.5835 143.01Z" fill="#D4D4D8"/>
<path d="M80.1067 143.01C80.709 143.01 81.1972 142.516 81.1972 141.906C81.1972 141.296 80.709 140.802 80.1067 140.802C79.5044 140.802 79.0161 141.296 79.0161 141.906C79.0161 142.516 79.5044 143.01 80.1067 143.01Z" fill="#D4D4D8"/>
<path d="M92.6298 143.01C93.232 143.01 93.7203 142.516 93.7203 141.906C93.7203 141.296 93.232 140.802 92.6298 140.802C92.0275 140.802 91.5392 141.296 91.5392 141.906C91.5392 142.516 92.0275 143.01 92.6298 143.01Z" fill="#D4D4D8"/>
<path d="M105.153 143.01C105.755 143.01 106.244 142.516 106.244 141.906C106.244 141.296 105.755 140.802 105.153 140.802C104.551 140.802 104.062 141.296 104.062 141.906C104.062 142.516 104.551 143.01 105.153 143.01Z" fill="#D4D4D8"/>
<path d="M118.767 141.906C118.767 142.513 118.276 143.01 117.676 143.01C117.076 143.01 116.586 142.513 116.586 141.906C116.586 141.299 117.076 140.802 117.676 140.802C118.285 140.802 118.767 141.29 118.767 141.906Z" fill="#D4D4D8"/>
<path d="M130.209 143.01C130.811 143.01 131.299 142.516 131.299 141.906C131.299 141.296 130.811 140.802 130.209 140.802C129.606 140.802 129.118 141.296 129.118 141.906C129.118 142.516 129.606 143.01 130.209 143.01Z" fill="#D4D4D8"/>
<path d="M142.732 143.01C143.334 143.01 143.822 142.516 143.822 141.906C143.822 141.296 143.334 140.802 142.732 140.802C142.129 140.802 141.641 141.296 141.641 141.906C141.641 142.516 142.129 143.01 142.732 143.01Z" fill="#D4D4D8"/>
</g>
</g>
<defs>
<clipPath id="clip0_278_4876">
<rect width="144" height="143" fill="white"/>
</clipPath>
</defs>
</svg>
