<svg width="436" height="436" viewBox="0 0 436 436" fill="none" xmlns="http://www.w3.org/2000/svg">
<path d="M41.9607 241.718C41.6617 237.916 41.4309 234.109 41.2472 230.31" stroke="black" stroke-width="2"/>
<path d="M258.224 378.503H149.687" stroke="#CCDDE2" stroke-width="2"/>
<path d="M289.911 106.604C289.911 106.604 321.898 91.4995 349.034 120.969C357.9 130.6 363.95 143.38 364.378 156.566C364.572 163 363.535 169.411 361.323 175.456C359.071 181.626 355.029 185.71 351.923 191.205C347.158 199.678 357.118 201.178 362.464 205.284C366.016 208.036 369.386 211.016 372.552 214.206C379.686 221.331 385.964 229.265 391.258 237.847C401.74 254.941 408.052 274.262 409.682 294.248C411.293 313.954 410.058 335.353 399.953 352.858C395.091 361.288 387.767 369.556 378.76 373.487C366.796 378.704 353.358 378.508 340.574 378.508H313.369" stroke="#CCDDE2" stroke-width="2"/>
<path d="M156.579 303.516C155.506 311.147 153.908 319.902 152.143 328.666L150.063 329.26C143.403 331.13 136.331 330.923 129.792 328.666L132.518 319.402L115.923 271.12C115.923 271.12 128.609 267.018 139.026 263.971L140.222 263.92C145.914 265.121 157.642 269.628 158.01 286.51C158.036 287.322 158.01 288.177 158.01 289.108C159.664 294.556 159.006 299.359 156.579 303.516Z" fill="#0147FF"/>
<path d="M117.517 119.726C117.176 118.86 116.206 118.425 115.333 118.747C115.098 118.818 114.881 118.939 114.697 119.102C114.038 119.636 113.889 120.572 113.868 121.46C113.808 123.49 113.692 125.524 113.543 127.545C113.543 127.682 113.521 127.835 113.521 127.972C113.427 129.6 113.496 131.574 112.804 132.993C112.759 133.101 112.683 133.193 112.586 133.258C112.355 133.364 112.111 133.134 111.962 132.924C111.535 132.301 111.107 131.689 110.68 131.053C110.343 130.544 109.962 129.993 109.373 129.831C108.497 129.587 107.663 130.361 107.181 131.147C105.621 133.711 105.472 137.911 107.886 140.06C110.3 142.209 104.895 146.435 101.024 148.212C100.376 148.577 99.6963 148.883 98.994 149.127C98.9598 149.127 100.391 149.447 100.357 149.46C97.3448 150.509 94.2069 151.154 91.0252 151.379C87.2481 151.631 83.5649 151.156 80.8859 149.516C81.0012 149.088 81.9156 146.097 81.9712 145.67C82.1677 144.179 82.3087 142.7 82.3984 141.201C82.5608 138.385 82.548 135.565 82.4412 132.758C82.0523 122.657 83.8512 114.171 88.0214 112.876C88.3507 112.778 88.6664 112.638 88.9615 112.462C90.8415 111.424 91.8456 109.232 90.9825 107.164C90.9227 107.023 90.8543 106.886 90.7945 106.736C90.7271 106.589 90.65 106.446 90.5638 106.309C98.7077 103.78 104.237 105.536 109.826 108.595C110.889 109.445 111.889 110.372 112.816 111.368C115.004 113.743 116.613 116.592 117.517 119.691V119.726Z" fill="#0147FF"/>
<path d="M313.284 216.842H285.51V150.46C285.51 150.46 280.383 208.138 266.334 240.817H180.318C190.458 234.373 198.589 224.64 204.002 214.163C206.139 210.018 209.557 203.866 215.24 205.481C216.59 205.861 218.577 206.104 219.581 204.87C219.928 204.396 220.124 203.829 220.145 203.242C220.632 197.191 214.36 192.098 209.19 190.492C204.019 188.885 197.978 189.637 193.863 193.393C190.898 196.106 189.039 199.708 186.868 203.045C185.566 205.023 184.021 206.83 182.271 208.425C184.501 194.88 186.488 181.933 186.774 177.169C192.214 172.875 196.209 165.872 197.627 159.676C199.187 152.908 200.563 146.29 202.985 139.953L222.816 140.021C224.371 140.021 225.631 138.761 225.631 137.206V104.271C225.634 102.73 224.39 101.477 222.85 101.468L209.348 101.352C214.254 100.327 219.23 99.6628 224.234 99.3656H224.52C227.815 99.1477 233.587 99.0537 236.911 99.0195C232.951 101.156 230.502 105.694 230.93 109.702C231.005 110.555 231.223 111.39 231.575 112.171C234.959 119.606 243.872 121.802 251.23 119.64C259.416 117.252 265.432 109.723 265.074 101.062C270.201 101.814 275.277 102.768 280.302 103.925C287.937 105.681 295.385 108.048 301.422 113.21C306.686 117.692 311.147 123.464 313.211 129.989C322.073 157.886 319.347 189.018 313.284 216.842Z" fill="#2E2E2E"/>
<path d="M186.997 177.169C186.373 187.364 184.766 197.55 183.023 207.711" stroke="black" stroke-width="4.05"/>
<path d="M203.208 139.953C200.781 146.29 199.409 152.908 197.849 159.676C196.418 165.85 192.432 172.875 186.997 177.169C182.433 180.771 176.844 182.467 170.862 180.194C162.838 177.135 160.022 168.29 159.04 160.492C157.762 150.782 157.685 140.952 158.809 131.224C159.941 133.74 164.569 141.397 178.921 139.385C179.306 139.673 179.769 139.838 180.25 139.859L203.208 139.953Z" fill="#2E2E2E"/>
<path d="M195.149 118.046C198.49 117.192 200.524 120.405 200.029 122.849C199.221 126.836 193.487 128.404 190.073 128.476C187.338 128.532 180.673 127.81 177.955 127.494" stroke="black" stroke-width="2"/>
<path d="M176.832 120.02C180.965 121.215 185.343 121.287 189.513 120.23C193.021 119.328 197.166 117.666 199.003 114.329C200.076 112.389 199.221 109.296 196.982 108.612C194.397 107.83 192.004 110.402 189.663 111.052C188.152 111.463 186.61 111.749 185.053 111.906C184.625 111.953 184.224 111.988 183.809 112.022C181.629 112.196 179.437 112.181 177.259 111.975C176.784 111.975 176.362 111.67 176.212 111.219C176.063 110.768 176.22 110.272 176.601 109.988L176.994 109.702" stroke="black" stroke-width="2"/>
<path d="M203.208 139.953C200.781 146.29 199.409 152.908 197.85 159.676C195.217 171.038 183.993 185.194 170.863 180.186C162.838 177.126 160.022 168.282 159.04 160.484C157.501 148.409 157.63 136.005 159.894 124.033C161.774 114.171 165.111 103.814 174.708 98.9642L179.212 96.7124C181.445 95.5834 184.172 96.4448 185.352 98.6523C185.697 99.3116 185.88 100.044 185.886 100.789C185.89 100.898 185.881 101.007 185.86 101.113" stroke="black" stroke-width="2"/>
<path d="M294.68 232.639C297 232.567 299.322 232.625 301.636 232.814C303.524 232.968 305.481 233.057 307.28 233.762C308.763 234.352 310.31 235.758 310.233 237.475C310.092 240.842 305.682 240.817 303.264 240.817" stroke="black" stroke-width="2"/>
<path opacity="0.54" d="M253.182 229.43L273.29 177.913C273.795 175.889 273.338 173.747 272.052 172.105C270.766 170.464 268.795 169.507 266.71 169.512H186.86C183.176 169.521 179.977 172.049 179.118 175.631L157.078 227.135C156.594 229.15 157.06 231.275 158.342 232.903C159.625 234.53 161.582 235.48 163.654 235.48H245.436C249.1 235.478 252.293 232.984 253.182 229.43Z" fill="white"/>
<path d="M253.182 229.43L273.29 177.913C273.795 175.889 273.338 173.747 272.052 172.105C270.766 170.464 268.795 169.507 266.71 169.512H186.86C183.176 169.521 179.977 172.049 179.118 175.631L157.078 227.135C156.594 229.15 157.06 231.275 158.342 232.903C159.625 234.53 161.582 235.48 163.654 235.48H245.436C249.1 235.478 252.293 232.984 253.182 229.43Z" fill="#0147FF"/>
<path fill-rule="evenodd" clip-rule="evenodd" d="M253.182 229.43L273.29 177.913C273.795 175.889 273.338 173.747 272.052 172.105C270.766 170.464 268.795 169.507 266.71 169.512H186.86C183.176 169.521 179.977 172.049 179.118 175.631L157.078 227.135C156.594 229.15 157.06 231.275 158.342 232.903C159.625 234.53 161.582 235.48 163.654 235.48H245.436C249.1 235.478 252.293 232.984 253.182 229.43V229.43Z" stroke="black" stroke-width="2" stroke-linecap="square" stroke-linejoin="round"/>
<path d="M250.238 227.345L268.791 179.818C269.257 177.954 268.838 175.98 267.655 174.465C266.472 172.951 264.658 172.067 262.736 172.067H189.052C185.647 172.066 182.685 174.401 181.891 177.712L161.599 225.23C161.156 227.087 161.588 229.045 162.77 230.544C163.953 232.044 165.757 232.919 167.667 232.921H243.094C246.474 232.923 249.42 230.623 250.238 227.345Z" fill="#0147FF"/>
<path d="M194.367 180.827C195.346 179.361 196.931 178.69 197.939 179.37C198.948 180.049 198.948 181.758 197.973 183.215C197.82 183.439 197.648 183.651 197.461 183.847L204.699 199.131C205.852 198.362 207.121 198.17 208.036 198.777C208.629 199.209 209.001 199.881 209.053 200.614L214.001 198.947L218.325 197.49L219.735 197.029C219.913 196.498 220.16 195.992 220.47 195.525C221.841 193.461 224.085 192.534 225.482 193.474C226.879 194.414 226.896 196.785 225.563 198.832L233.809 210.091C235.608 208.617 237.723 208.16 239.189 209.134C241.184 210.463 241.214 213.928 239.257 216.868C239.176 216.987 239.086 217.081 239.005 217.192L244.491 224.695L244.543 224.768C245.127 225.649 244.886 226.837 244.004 227.421C243.123 228.005 241.935 227.764 241.351 226.883L236.48 219.53C234.937 220.423 233.297 220.593 232.096 219.794C230.19 218.513 230.096 215.317 231.797 212.467L223.905 200.554C222.739 201.345 221.452 201.545 220.53 200.934C220.017 200.57 219.667 200.019 219.555 199.4L218.966 199.563L214.569 200.763L208.937 202.285C208.762 202.959 208.473 203.599 208.083 204.177C206.711 206.237 204.468 207.168 203.071 206.228C201.674 205.288 201.652 202.874 203.024 200.81C203.225 200.507 203.451 200.222 203.699 199.956L196.807 184.386C195.978 184.954 195.059 185.099 194.401 184.659C193.41 184.001 193.393 182.275 194.367 180.827Z" fill="#D7E8F0"/>
<path d="M246.799 181.647H257.481C258.478 181.646 259.381 181.056 259.784 180.143C259.842 180.008 259.874 179.863 259.878 179.716C259.875 179.109 259.383 178.618 258.775 178.618H247.423C247.957 179.511 247.687 180.763 246.799 181.647H246.799Z" fill="#D7E8F0"/>
<path d="M239.894 180.553C239.896 181.158 240.387 181.647 240.992 181.647H246.799C247.687 180.763 247.957 179.511 247.422 178.609H242.295C241.298 178.609 240.395 179.197 239.992 180.109C239.929 180.249 239.896 180.4 239.894 180.553H239.894Z" fill="#0147FF"/>
<path d="M242.564 181.647C242.595 181.705 242.631 181.761 242.671 181.814C243.432 182.856 245.085 182.955 246.367 182.019C246.519 181.906 246.662 181.782 246.794 181.647C247.683 180.763 247.952 179.511 247.418 178.609C247.39 178.55 247.356 178.494 247.316 178.442C246.559 177.396 244.906 177.306 243.624 178.233C243.472 178.348 243.33 178.473 243.197 178.609C242.308 179.498 242.039 180.741 242.564 181.647Z" fill="white"/>
<path d="M237.228 187.257C237.232 187.863 237.725 188.351 238.33 188.351H249.538C248.995 187.445 249.264 186.215 250.153 185.313H239.612C238.613 185.314 237.708 185.903 237.305 186.817C237.251 186.957 237.225 187.107 237.228 187.257Z" fill="#0147FF"/>
<path d="M249.521 188.351H254.793C255.789 188.351 256.691 187.765 257.096 186.855C257.156 186.721 257.19 186.576 257.194 186.428C257.196 186.137 257.08 185.857 256.874 185.65C256.668 185.444 256.388 185.329 256.096 185.33H250.136C249.247 186.202 248.978 187.445 249.521 188.351Z" fill="#D7E8F0"/>
<path d="M249.521 188.351C249.545 188.41 249.577 188.466 249.615 188.518C250.371 189.565 252.024 189.659 253.306 188.727C253.458 188.612 253.601 188.487 253.734 188.351C254.614 187.462 254.883 186.215 254.357 185.313C254.326 185.256 254.292 185.2 254.255 185.146C253.49 184.104 251.836 184.01 250.555 184.946C250.403 185.057 250.26 185.18 250.127 185.313C249.247 186.202 248.978 187.445 249.521 188.351Z" fill="white"/>
<path d="M245.773 195.008H252.481C253.479 195.007 254.383 194.419 254.789 193.508C254.847 193.373 254.879 193.228 254.883 193.081C254.883 192.471 254.39 191.977 253.78 191.974H246.41C246.94 192.876 246.666 194.119 245.773 195.008Z" fill="#0147FF"/>
<path d="M234.912 193.918C234.913 194.209 235.029 194.486 235.235 194.691C235.441 194.895 235.72 195.009 236.01 195.008H245.773C246.653 194.119 246.927 192.872 246.397 191.966H237.313C236.313 191.965 235.409 192.557 235.01 193.474C234.947 193.614 234.914 193.765 234.912 193.918H234.912Z" fill="#D7E8F0"/>
<path d="M241.552 195.008C241.583 195.067 241.618 195.122 241.659 195.175C242.415 196.222 244.064 196.311 245.35 195.38C245.502 195.267 245.645 195.143 245.777 195.008C246.658 194.119 246.931 192.872 246.401 191.966C246.373 191.907 246.339 191.851 246.299 191.799C245.534 190.761 243.885 190.671 242.599 191.598C242.448 191.711 242.305 191.833 242.171 191.966C241.291 192.855 241.018 194.107 241.552 195.008Z" fill="white"/>
<path d="M202.409 226.405H209.121C210.117 226.403 211.02 225.815 211.424 224.905C211.483 224.77 211.515 224.625 211.518 224.478C211.518 223.869 211.025 223.375 210.416 223.375H203.045C203.562 224.273 203.289 225.516 202.409 226.405H202.409Z" fill="#0147FF"/>
<path d="M175.772 225.315C175.773 225.605 175.889 225.883 176.095 226.087C176.301 226.292 176.58 226.406 176.87 226.405H202.409C203.289 225.516 203.562 224.268 203.032 223.367H178.173C177.175 223.366 176.271 223.956 175.87 224.871C175.809 225.011 175.776 225.162 175.772 225.315H175.772Z" fill="#D7E8F0"/>
<path d="M198.174 226.405C198.205 226.463 198.241 226.519 198.281 226.571C199.037 227.618 200.687 227.708 201.973 226.781C202.124 226.665 202.266 226.54 202.4 226.405C203.28 225.516 203.554 224.268 203.024 223.367C202.996 223.308 202.962 223.252 202.921 223.2C202.156 222.158 200.507 222.068 199.221 222.995C199.069 223.107 198.926 223.232 198.794 223.367C197.918 224.251 197.64 225.503 198.174 226.405Z" fill="white"/>
<path d="M33.492 242.859C33.492 242.859 19.3918 306.554 55.6636 319.859C91.9354 333.165 189.915 320.667 149.195 274.709C108.475 228.75 33.492 242.859 33.492 242.859Z" fill="#2E2E2E"/>
<path d="M209.489 101.352C214.418 100.324 219.417 99.6575 224.443 99.3571H224.734C228.037 99.1392 233.822 99.0452 237.125 99.011" stroke="black" stroke-width="2"/>
<path d="M185.052 111.894C185.018 111.915 184.997 111.941 184.963 111.962" stroke="black" stroke-width="4.05"/>
<path d="M241.265 85.1159C238.744 86.4404 235.847 85.5432 234.737 83.2871" stroke="black" stroke-width="2"/>
<path d="M226.631 52.9205C226.398 56.9398 228.75 60.6614 232.481 62.1753C232.865 61.4692 233.417 60.8678 234.087 60.4235C236.92 58.5905 236.416 63.4871 244.107 62.1967C254.768 60.3979 257.485 64.1109 257.485 64.1109C257.72 64.4357 257.058 66.555 256.964 66.9438C256.536 69.2212 256.109 71.4858 255.72 73.7803C255.47 75.1704 255.216 76.5519 254.96 77.9249C255.154 77.737 255.359 77.5615 255.575 77.3993C257.327 74.6647 259.895 71.5969 262.694 74.1007C263.255 74.6223 263.686 75.2695 263.95 75.9893C265.232 79.4716 262.779 81.7106 259.912 83.0522C259.156 83.5099 258.352 83.8838 257.515 84.1674C257.656 85.0476 258.241 88.5556 258.241 88.5642C258.301 88.9231 265.42 84.5349 266.014 84.0008C267.087 82.582 267.914 80.9933 268.462 79.3007C270.675 72.319 270.299 63.2948 265.843 57.5522C264.736 56.1293 265.475 55.309 265.796 53.9246C265.827 53.7722 265.762 53.6161 265.632 53.5304C265.503 53.4448 265.334 53.4469 265.206 53.5357C262.805 55.044 258.459 53.5016 258.459 53.5016C244.359 45.0329 237.134 50.2713 233.677 50.5362C232.275 50.6325 230.883 50.2366 229.742 49.4168C229.333 50.2247 228.511 50.7407 227.605 50.7584L227.469 51.4933C227.364 52.0519 227.068 52.5566 226.631 52.9205Z" fill="#0147FF"/>
<path d="M229.943 64.974L229.955 64.9782L229.943 64.974Z" fill="#0147FF"/>
<path d="M232.489 62.1923C228.759 60.6783 226.406 56.9567 226.64 52.9374C226.681 52.1843 226.79 51.4365 226.964 50.7027L227.088 50.7283C227.256 50.7663 227.429 50.7792 227.601 50.7668C228.507 50.7491 229.328 50.2331 229.737 49.4251C229.855 49.2044 229.937 48.9665 229.981 48.7201L230.639 45.1438C230.639 45.1438 232.775 48.0365 236.194 47.7673C239.612 47.4981 246.837 42.2597 260.976 50.7326C260.976 50.7326 264.369 51.9846 266.77 50.4763C266.898 50.3874 267.066 50.3853 267.196 50.4709C267.326 50.5566 267.391 50.7127 267.359 50.8651C267.039 52.2452 267.253 53.3604 268.359 54.7832C272.816 60.5259 273.192 69.55 270.979 76.5318C270.01 79.4251 268.289 82.0087 265.992 84.0177C265.398 84.5518 258.28 88.94 258.22 88.5811C258.22 88.5811 257.635 85.0646 257.494 84.1844L257.459 83.9835L257.66 83.9237C258.422 83.6881 259.167 83.4026 259.891 83.0692C262.758 81.7275 265.223 79.4886 263.928 76.0062C263.665 75.2864 263.234 74.6392 262.672 74.1176C259.874 71.6138 257.306 74.6817 255.554 77.4163C255.215 77.9354 254.937 78.4916 254.725 79.0741C254.793 78.6981 254.862 78.3306 254.934 77.9546C255.191 76.5788 255.444 75.1972 255.695 73.81C256.122 71.5283 256.519 69.2638 256.938 66.9735C257.015 66.5847 257.694 64.4654 257.459 64.1407C257.459 64.1407 254.742 60.4276 244.081 62.2265C236.39 63.5083 236.894 58.6202 234.062 60.4532C233.391 60.8976 232.84 61.499 232.455 62.2051C232.336 62.4351 232.23 62.672 232.139 62.9144C232.123 62.9446 232.111 62.976 232.1 63.0084C231.908 63.5382 231.733 64.0723 231.562 64.5936C229.964 69.6739 228.909 75.1602 229.473 80.4969C230.16 86.966 234.873 94.5715 242.372 93.9263C244.732 93.6499 247.033 93.0039 249.192 92.0121" stroke="black" stroke-width="2"/>
<ellipse cx="233.262" cy="74.374" rx="1.32885" ry="1.60658" transform="rotate(-1.62 233.262 74.374)" fill="black"/>
<ellipse cx="243.303" cy="77.0715" rx="1.32883" ry="1.60658" transform="rotate(-1.61998 243.303 77.0715)" fill="black"/>
<path d="M239.014 79.2708C239.014 79.2708 235.13 80.1254 235.523 78.1342C235.642 77.5104 236.617 71.3832 236.617 71.3832C236.617 71.3832 234.805 67.7342 230.066 68.5845" stroke="black" stroke-width="2"/>
<path d="M240.757 70.8363C240.757 70.8363 246.914 69.7894 249.273 74.7074" stroke="black" stroke-width="2"/>
<path d="M237.194 98.96C232.344 101.524 229.755 107.694 231.784 112.159C235.168 119.598 244.077 121.785 251.439 119.636C259.626 117.243 265.642 109.698 265.283 101.045" stroke="black" stroke-width="2"/>
<path d="M266.556 240.812C280.618 208.134 285.724 150.456 285.724 150.456V230.929C285.723 233.551 286.764 236.065 288.617 237.919C290.471 239.773 292.985 240.814 295.607 240.812H326.798C329.22 240.851 331.281 239.058 331.58 236.655C331.706 235.362 331.28 234.076 330.407 233.115C329.533 232.153 328.294 231.606 326.995 231.609H314.219C313.187 231.606 312.214 231.126 311.582 230.309C310.951 229.493 310.732 228.43 310.989 227.43C318.68 197.093 323.436 161.484 313.424 129.972C311.356 123.469 306.9 117.675 301.636 113.197C295.594 108.035 288.147 105.668 280.515 103.916C275.482 102.763 270.405 101.808 265.283 101.053C265.268 101.059 265.251 101.059 265.236 101.053C265.202 101.053 265.167 101.053 265.146 101.053H265.112H265.065H264.997" stroke="black" stroke-width="2"/>
<path d="M262.061 86.5347L261.497 96.7424C261.385 98.8068 262.832 100.63 264.868 100.99H264.996C265.019 100.983 265.042 100.983 265.065 100.99H265.086H265.146" stroke="black" stroke-width="2"/>
<path d="M265.236 101.036H265.146H265.112H265.086H265.065H264.996H264.868C262.832 100.676 261.385 98.8536 261.497 96.7893L262.061 86.5815" stroke="black" stroke-width="2"/>
<path d="M238.001 93.2899C237.723 93.1788 238.001 104.69 231.135 109.689" stroke="black" stroke-width="2"/>
<path d="M146.072 240.817H124.075" stroke="black" stroke-width="2"/>
<path d="M360.964 240.817H180.318" stroke="black" stroke-width="2"/>
<path d="M82.4455 132.745C82.6575 137.054 82.5031 141.374 81.984 145.657C81.3175 150.691 76.6644 157.087 75.656 162.065C74.2161 169.226 76.3952 176.626 79.3862 183.275C83.001 191.312 88.6966 199.396 88.1411 208.6C87.5645 216.722 83.2851 224.127 76.5362 228.682C71.974 231.734 66.7627 233.68 61.3165 234.365C60.556 234.455 59.7826 234.527 59.0092 234.549C58.5819 234.549 58.1546 234.502 57.7274 234.467C43.2426 233.241 28.386 222.192 28.4202 206.81C28.4202 196.982 35.8891 189.291 37.1496 179.754C37.9229 173.922 36.2138 167.863 37.7947 162.201C40.3584 153.16 50.267 148.229 54.6082 139.906C57.8043 133.762 58.3256 126.592 60.855 120.149C64.3758 111.176 69.9988 100.921 77.6899 100.066C79.9217 100.319 82.0789 101.023 84.0307 102.134C88.7992 104.698 90.0126 104.86 90.9826 107.146C91.9738 109.535 90.4955 112.086 88.0258 112.851C83.8555 114.171 82.0567 122.644 82.4455 132.745Z" fill="#0147FF"/>
<path d="M86.6371 103.523C99.1564 99.8954 107.112 105.232 112.804 111.385C118.495 117.538 118.23 124.524 118.23 124.524" stroke="black" stroke-width="2"/>
<path d="M125.468 223.862C125.279 233.643 124.04 243.375 121.772 252.892" stroke="black" stroke-width="2"/>
<path fill-rule="evenodd" clip-rule="evenodd" d="M156.579 303.516C151.994 311.403 141.12 317.005 127.814 320.491C104.203 326.678 72.9428 326.196 55.6721 319.855C19.3789 306.554 33.4877 242.859 33.4877 242.859C33.4877 242.859 96.2594 231.045 138.116 264.223C142.114 267.383 145.826 270.891 149.208 274.704C153.835 279.938 156.677 284.728 158.018 289.103C159.663 294.556 159.005 299.358 156.579 303.516V303.516Z" stroke="black" stroke-width="2"/>
<path d="M132.518 319.415C132.518 319.415 110.526 380.46 147.473 396.052C184.42 411.643 11.7948 413.72 49.8996 396.052C88.0044 378.384 66.102 323.145 66.102 323.145" stroke="black" stroke-width="2"/>
<path d="M177.255 111.962C176.797 110.565 176.985 105.706 177.135 102.963C177.195 101.886 178.099 101.052 179.177 101.079L223.072 101.464C224.612 101.478 225.853 102.73 225.853 104.271V137.21C225.853 137.957 225.556 138.673 225.027 139.199C224.497 139.726 223.78 140.02 223.033 140.017L180.258 139.859C178.971 139.806 177.954 138.746 177.955 137.458V134.945C180.998 136.364 186.749 136.8 186.749 136.8C188.795 136.744 192.03 136.496 193.803 135.479C195.427 134.548 197.478 133.21 197.755 131.185C197.979 129.555 196.843 128.05 195.213 127.818C194.743 127.724 194.256 127.758 193.803 127.916" stroke="black" stroke-width="2"/>
<path d="M220.094 203.242C220.073 203.829 219.875 204.397 219.525 204.87C218.521 206.104 216.535 205.861 215.184 205.481C209.506 203.866 206.096 210.018 203.951 214.163C198.533 224.64 190.406 234.373 180.267 240.817C179.609 241.244 178.938 241.646 178.259 242.039C168.35 247.756 155.51 246.692 145.927 240.757L158.181 210.655L159.394 211.625C166.795 217.466 175.904 214.189 182.211 208.425C183.962 206.83 185.506 205.023 186.809 203.045C188.979 199.708 190.838 196.106 193.808 193.393C197.918 189.637 203.934 188.902 209.13 190.492C214.325 192.081 220.564 197.191 220.094 203.242Z" fill="white"/>
<path d="M220.042 201.11C220.042 201.11 218.65 193.735 206.092 199.49" stroke="black" stroke-width="2"/>
<path d="M213.056 192.256C213.056 192.256 205.229 189.753 200.87 195.735" stroke="black" stroke-width="2"/>
<path fill-rule="evenodd" clip-rule="evenodd" d="M55.044 234.48C57.134 234.667 59.2379 234.632 61.3208 234.378C66.7655 233.684 71.9744 231.734 76.5362 228.682C83.2851 224.127 87.5645 216.722 88.1411 208.6C88.6966 199.392 83.0138 191.308 79.3861 183.271C76.3952 176.618 74.2161 169.217 75.6603 162.065C76.6644 157.083 81.3089 150.691 81.9797 145.653C82.5016 141.37 82.6588 137.05 82.4497 132.741C82.0609 122.635 83.8555 114.154 88.0257 112.863C90.4954 112.099 91.9781 109.544 90.9825 107.159C90.0297 104.869 88.8034 104.732 84.0307 102.139C71.5883 95.3706 62.9359 107.988 58.1589 120.153C55.6251 126.601 55.1124 133.762 51.912 139.906C47.5709 148.234 37.6409 153.152 35.1029 162.21C33.5176 167.867 35.2268 173.93 34.4577 179.754C33.2015 189.287 25.7454 196.974 25.7241 206.81C25.6899 222.187 40.5635 233.245 55.044 234.48V234.48Z" stroke="black" stroke-width="2"/>
<path d="M156.579 303.516C155.506 311.147 153.908 319.902 152.148 328.666C147.157 353.503 140.808 378.491 140.808 378.491" stroke="black" stroke-width="2"/>
<path d="M158.001 289.104C158.023 288.172 158.036 287.318 158.001 286.506C157.621 268.987 145.025 264.8 139.607 263.796C138.799 263.638 137.981 263.533 137.159 263.484" stroke="black" stroke-width="2"/>
<path d="M142.688 370.915C144.107 370.045 145.886 370.011 147.339 370.826C148.791 371.641 149.689 373.177 149.686 374.842V375.06C149.548 379.337 147.415 383.303 143.922 385.776L137.983 390.002" stroke="black" stroke-width="2"/>
<path d="M75.2202 167.713C76.0491 167.376 76.8952 167.077 77.7497 166.799C79.5486 163.475 79.2708 156.198 79.0999 153.553L80.8988 149.498C85.8638 152.549 92.4353 151.404 98.5326 149.281C99.3889 148.981 100.222 148.619 101.024 148.195C104.895 146.418 110.321 142.213 107.886 140.043C105.45 137.872 105.621 133.693 107.181 131.13C107.655 130.343 108.497 129.57 109.373 129.814C109.962 129.976 110.343 130.527 110.68 131.036C111.107 131.672 111.535 132.283 111.962 132.907C112.112 133.117 112.355 133.334 112.586 133.24C112.683 133.176 112.759 133.084 112.804 132.976C113.556 131.429 113.415 129.211 113.543 127.515C113.693 125.494 113.808 123.46 113.868 121.43C113.902 120.311 114.133 119.11 115.333 118.717C115.824 118.528 116.375 118.575 116.827 118.845C117.278 119.116 117.58 119.579 117.645 120.102C118.519 125.012 118.647 130.026 118.025 134.975C117.435 140.158 116.372 145.657 113.047 149.836C111.153 152.246 108.616 154.072 105.728 155.1C102.934 156.07 103.023 159.441 103.023 162.398V167.307C111.616 169.051 119.687 171.153 126.361 177.135C130.775 181.17 134.928 185.481 138.795 190.043C150.968 204.327 153.6 207.006 159.463 211.625C166.863 217.466 175.977 214.189 182.279 208.425C184.027 206.829 185.568 205.022 186.868 203.045C189.039 199.708 190.898 196.106 193.863 193.393C197.978 189.637 203.994 188.902 209.19 190.492C214.385 192.081 220.632 197.191 220.136 203.242C220.116 203.829 219.919 204.396 219.572 204.87C218.568 206.104 216.582 205.861 215.231 205.481C209.548 203.866 206.143 210.018 203.994 214.163C198.58 224.64 190.449 234.373 180.31 240.817C179.652 241.244 178.985 241.646 178.302 242.039C166.974 248.576 151.789 246.243 142.047 237.915L118.546 217.966" stroke="black" stroke-width="2"/>
<path d="M77.7496 166.799C77.7496 166.799 88.9743 163.33 103.023 167.32" stroke="black" stroke-width="2"/>
<path d="M177.955 134.945C177.955 134.945 178.041 149.473 181.506 155.066" stroke="black" stroke-width="2"/>
<path d="M189.342 68.452C186.676 73.0025 186.8 76.2328 187.492 81.4755C187.609 82.3868 187.193 83.2842 186.422 83.7837C185.651 84.2832 184.661 84.2961 183.877 83.817C168.495 74.9637 154.1 81.9669 135.736 77.63C128.993 76.0448 120.589 72.7675 114.825 67.4906C112.912 64.6508 111.892 61.3047 111.894 57.8811C111.894 43.5288 131.501 31.8896 155.677 31.8896C171.174 31.8896 184.788 36.6709 192.573 43.8749C192.573 43.8749 192.573 43.8749 192.594 43.9005C194.547 46.7086 195.613 50.0383 195.653 53.4587C195.653 58.6246 191.825 64.1792 189.342 68.452Z" fill="#D7E8F0"/>
<path fill-rule="evenodd" clip-rule="evenodd" d="M195.585 53.4673V53.8305C195.495 58.8596 192.979 63.534 189.992 67.5804C187.992 70.2893 185.621 73.2931 186.185 76.6131C186.433 78.0744 187.249 79.4032 187.467 80.8859C187.685 82.3685 186.89 84.1845 185.407 84.2614C184.467 84.3084 183.664 83.6375 182.92 83.0607C178.507 79.6425 172.772 78.3606 167.196 78.1384C161.62 77.9163 156.053 78.6469 150.473 78.805C142.431 79.0357 134.262 78.0316 126.831 74.9595C120.153 72.1736 114.064 67.6445 110.056 61.6155C106.121 55.6721 108.45 47.0496 112.646 41.8837C116.585 37.0384 122.285 33.9363 128.135 31.7529C143.863 25.8778 161.817 26.0188 177.332 32.4494C181.938 34.338 186.381 36.8333 189.842 40.431C193.218 43.939 195.555 48.6134 195.585 53.4673Z" stroke="black" stroke-width="2"/>
<ellipse cx="131.04" cy="53.1426" rx="6.04173" ry="6.04174" fill="white"/>
<ellipse cx="150.575" cy="53.1426" rx="6.04175" ry="6.04174" fill="white"/>
<ellipse cx="170.491" cy="53.1426" rx="6.04173" ry="6.04174" fill="white"/>
<g opacity="0.54">
<path d="M286.587 306.447L284.13 341.911C283.007 344.052 281.603 346.034 279.956 347.803C279.776 347.739 279.597 347.671 279.422 347.59C279.093 347.479 278.768 347.346 278.46 347.218C273.482 345.035 269.701 340.967 268.599 336.357C267.603 332.319 268.5 327.956 266.578 324.162C264.232 319.488 257.853 316.557 257.071 311.284C256.336 306.349 260.779 301.824 260.062 296.987C259.207 291.518 252.52 288.275 251.268 282.934C250.486 279.614 251.187 275.803 250.892 272.384C250.567 268.561 249.925 264.77 248.974 261.053C258.874 260.335 268.949 265.791 272.158 273.606C274.777 280.016 273.2 287.48 277.285 293.308C279.516 296.466 283.229 298.829 285.151 302.132C285.745 303.162 286.177 304.277 286.433 305.439C286.433 305.52 286.433 305.601 286.463 305.665C286.463 305.798 286.497 305.892 286.514 305.99C286.557 306.285 286.587 306.447 286.587 306.447Z" fill="#0147FF"/>
<path d="M286.604 306.417C286.604 306.417 286.574 306.272 286.54 305.99C286.569 306.102 286.591 306.216 286.604 306.332C286.617 306.359 286.617 306.39 286.604 306.417Z" fill="#0147FF"/>
</g>
<path d="M319.312 292.577C318.031 297.184 311.01 299.982 310.164 304.704C309.417 308.891 314.04 312.796 313.275 317.048C312.459 321.607 305.815 324.128 303.375 328.157C301.388 331.43 302.315 335.194 301.29 338.677C300.102 342.633 296.162 346.167 290.967 348.038C290.642 348.154 290.334 348.265 290.005 348.363C289.826 348.414 289.629 348.478 289.45 348.525C287.741 347.111 285.754 344.62 284.143 341.933L286.587 306.447C288.493 304.832 290.672 303.353 292.189 301.559C293.834 299.623 294.599 297.508 295.086 295.291H295.137V295.047C295.851 291.548 295.915 287.882 297.56 284.562C300.897 277.806 311.369 273.098 321.675 273.717C320.703 276.908 320.038 280.185 319.688 283.502C319.394 286.437 320.12 289.727 319.312 292.577Z" fill="#0147FF"/>
<path d="M295.154 295.017V295.261H295.103L295.154 295.017Z" fill="#0147FF"/>
<path d="M295.154 295.017L295.103 295.261C294.616 297.478 293.851 299.593 292.206 301.529C290.689 303.324 288.51 304.802 286.604 306.417C286.612 306.395 286.612 306.371 286.604 306.349C286.591 306.234 286.569 306.119 286.54 306.007C286.54 305.909 286.506 305.815 286.489 305.682C286.489 305.618 286.489 305.537 286.459 305.456C286.202 304.295 285.77 303.179 285.177 302.149C283.254 298.846 279.541 296.483 277.311 293.325C277.311 293.325 278.319 276.683 286.835 271.619C294.91 266.834 295.154 292.249 295.154 295.017Z" fill="#0147FF"/>
<path d="M295.154 295.017V295.261H295.103L295.154 295.017Z" fill="#0147FF"/>
<path d="M286.587 306.349V306.447C286.587 306.447 286.557 306.302 286.523 306.02C286.552 306.128 286.573 306.238 286.587 306.349Z" fill="#0147FF"/>
<path d="M285.826 306.447C287.724 304.832 289.928 303.332 291.449 301.542C295.722 296.504 294.073 290.065 296.812 284.54C300.145 277.794 310.626 273.089 320.928 273.705C319.949 276.894 319.283 280.171 318.936 283.489C318.629 286.446 319.364 289.732 318.556 292.595C317.244 297.201 310.25 299.995 309.4 304.717C308.643 308.9 313.279 312.805 312.514 317.052C311.698 321.616 305.058 324.136 302.614 328.161C300.619 331.439 301.555 335.195 300.521 338.685C299.269 342.894 294.91 346.611 289.232 348.368C289.052 348.427 288.856 348.491 288.672 348.538C286.963 347.124 284.976 344.633 283.361 341.941" stroke="black" stroke-width="2"/>
<path d="M314.638 278.99C299.277 295.521 292.052 330.375 289.241 348.372C289.01 349.889 288.813 351.277 288.625 352.529" stroke="black" stroke-width="2"/>
<path fill-rule="evenodd" clip-rule="evenodd" d="M316.057 362.664L309.011 404.362C308.665 406.721 306.668 408.485 304.285 408.537H267.334C264.926 408.482 262.917 406.682 262.6 404.294L256.083 362.66L316.057 362.664Z" stroke="black" stroke-width="2"/>
<path fill-rule="evenodd" clip-rule="evenodd" d="M322.769 358.007C322.638 360.572 320.552 362.603 317.984 362.664H254.272C251.734 362.604 249.662 360.617 249.495 358.084C249.226 355.093 251.439 352.529 254.272 352.529H317.984C320.791 352.534 322.996 355.059 322.769 358.007V358.007Z" stroke="black" stroke-width="2"/>
<path fill-rule="evenodd" clip-rule="evenodd" d="M279.199 347.795C281.934 345.082 285.284 339.031 286.767 334.092C287.989 330.02 285.839 325.828 285.344 321.65C284.575 315.108 287.822 308.075 284.399 302.144C282.489 298.837 278.776 296.487 276.546 293.321C272.44 287.489 274.016 280.028 271.393 273.632C268.184 265.808 258.113 260.352 248.217 261.078C249.163 264.797 249.804 268.587 250.136 272.41C250.431 275.828 249.708 279.64 250.503 282.955C251.755 288.296 258.472 291.531 259.297 297.004C260.023 301.841 255.575 306.37 256.306 311.297C257.092 316.578 263.463 319.496 265.817 324.179C267.731 327.978 266.834 332.336 267.825 336.369C269.069 341.411 273.474 345.842 279.199 347.795V347.795Z" stroke="black" stroke-width="2"/>
<path d="M254.259 267.206C269.004 286.365 275.944 326.739 278.674 347.581C278.905 349.389 279.101 351.046 279.276 352.529" stroke="black" stroke-width="2"/>
<path d="M276.537 293.321C276.537 293.321 277.55 276.679 286.061 271.62C294.573 266.561 294.393 294.911 294.393 294.911" stroke="black" stroke-width="2"/>
<path d="M285.827 306.447C285.827 306.447 284.088 296.927 287.138 287.565" stroke="black" stroke-width="2"/>
</svg>
