<svg width="436" height="436" viewBox="0 0 436 436" fill="none" xmlns="http://www.w3.org/2000/svg">
<path d="M296.752 98.182C304.87 93.6657 317.522 102.882 323.115 108.056C329.653 114.073 334.925 121.729 338.98 129.613C357.392 165.402 367.069 207.98 351.939 246.76C346.844 259.889 338.894 271.72 328.666 281.4C322.914 286.813 311.079 291.919 309.352 300.2C308.982 302.256 309.129 304.372 309.78 306.357C312.066 313.946 318.966 319.205 324.239 324.73C349.555 351.311 331.251 392.518 304.182 410.276" stroke="#CCDDE2" stroke-width="2"/>
<path d="M98.2206 237.732C106.125 229.336 116.226 223.661 126.383 218.44C137.381 212.787 148.204 207.096 158.202 199.755C164.289 195.296 170.048 190.405 175.434 185.121" stroke="#CCDDE2" stroke-width="2"/>
<path d="M85.3893 344.077C75.2884 317.983 72.7248 288.074 83.2615 262.01" stroke="#CCDDE2" stroke-width="2"/>
<path d="M217.748 74.3313V46.3615C217.748 42.3499 214.496 39.0978 210.484 39.0978H117.863C113.851 39.0978 110.599 42.3499 110.599 46.3615V177.887C110.615 181.887 113.863 185.121 117.863 185.121H210.497C211.396 185.128 212.288 184.956 213.12 184.617" stroke="black" stroke-width="2" stroke-linecap="round" stroke-linejoin="round"/>
<rect x="113.868" y="43.5415" width="100.629" height="137.161" rx="6.27" fill="#0147FF"/>
<rect x="119.79" y="54.1552" width="89.8826" height="25.6795" rx="8.14" fill="#0147FF"/>
<ellipse cx="164.18" cy="62.3163" rx="2.65769" ry="2.65768" fill="#D7E8F0"/>
<path d="M156.758 74.3314C156.758 70.2324 160.081 66.9095 164.18 66.9095C168.279 66.9095 171.602 70.2324 171.602 74.3314H156.758Z" fill="#D7E8F0"/>
<path fill-rule="evenodd" clip-rule="evenodd" d="M164.722 107.356C158.931 107.352 153.709 110.839 151.491 116.188C149.273 121.538 150.498 127.696 154.592 131.791C158.687 135.886 164.846 137.11 170.195 134.892C175.545 132.675 179.031 127.452 179.028 121.661C179.025 113.762 172.622 107.358 164.722 107.356ZM164.722 132.514C163.568 132.514 162.633 131.579 162.633 130.425C162.633 129.271 163.568 128.335 164.722 128.335C165.876 128.335 166.812 129.271 166.812 130.425C166.812 131.579 165.876 132.514 164.722 132.514ZM167.185 117.739C167.247 117.299 167.309 116.861 167.372 116.427C167.401 116.206 167.44 115.977 167.48 115.742C167.718 114.335 167.985 112.752 166.543 111.928C165.184 111.159 162.83 111.342 162.001 112.812C161.254 114.101 161.693 116.039 162.057 117.641C162.161 118.101 162.259 118.533 162.321 118.914C162.669 121.249 163.171 123.559 163.825 125.827C164.047 126.545 165.41 126.545 165.632 125.827C166.415 123.222 166.806 120.44 167.185 117.739Z" fill="#D7E8F0"/>
<circle cx="164.722" cy="130.425" r="2.08939" fill="white"/>
<path d="M167.372 116.427C166.923 119.529 166.543 122.798 165.633 125.827C165.41 126.545 164.047 126.545 163.825 125.827C163.171 123.558 162.669 121.249 162.321 118.914C162.043 117.205 161.039 114.47 162.001 112.812C162.83 111.342 165.184 111.159 166.543 111.928C168.226 112.889 167.581 114.884 167.372 116.427Z" fill="white"/>
<path d="M128.78 91.3029H198.666" stroke="white" stroke-width="4.72"/>
<path d="M128.78 98.1779H198.666" stroke="white" stroke-width="4.72"/>
<path d="M128.78 142.478H198.666" stroke="white" stroke-width="4.72"/>
<path d="M215.68 160.206C215.945 160.411 216.406 74.0238 216.406 74.0238L190.116 63.863C190.116 63.863 170.572 111.765 171.755 112.248L177.032 114.385C177.032 114.385 178.336 113.355 181.356 120.794C184.377 128.233 206.151 152.878 215.68 160.206Z" fill="white"/>
<path d="M145.012 148.986H182.433" stroke="white" stroke-width="4.72"/>
<path d="M320.88 199.076C320.539 202.802 315.941 245.538 320.398 253.883C322.013 256.904 305.981 254.011 305.016 253.789C290.488 250.371 276.883 244.068 264.15 236.403C251.418 228.738 240.167 218.649 226.892 211.851C224.439 210.595 219.008 207.844 220.615 204.242C223.35 198.106 226.708 189.637 226.973 182.147L226.892 172.32C226.892 172.32 224.952 166.15 231.28 171.555C237.608 176.96 266.565 191.21 285.309 174.699C304.054 158.189 305.165 145.132 305.165 145.132C305.165 145.132 293.163 115.76 258.993 133.728L271.064 102.536C271.064 102.536 269.41 100.438 274.64 100.827C279.87 101.216 289.569 98.6308 290.77 89.0469C290.77 89.0469 290.864 85.9192 296.397 91.8328C301.931 97.7463 328.08 120.841 320.88 199.076Z" fill="#2E2E2E"/>
<path d="M253.703 88.4358C256.635 86.2857 259.919 84.6621 263.407 83.6375" stroke="black" stroke-width="2"/>
<path d="M240.714 234.266L217.214 319.227L195.85 396.488L182.245 397.769C175.781 398.365 170.834 403.785 170.828 410.276H212.903L243.376 357.755L266.043 318.68L301.482 257.579C302.507 255.797 303.503 254.015 304.473 252.195C304.489 252.174 304.498 252.149 304.499 252.123" stroke="black" stroke-width="2"/>
<path d="M320.009 205.609C320.329 203.532 320.611 201.456 320.863 199.366C320.863 199.268 320.863 199.183 320.889 199.084C322.327 186.431 322.633 173.674 321.803 160.967C321.809 160.93 321.809 160.892 321.803 160.856C320.863 147.024 318.325 132.497 313.258 118.333C311.786 114.247 309.967 110.296 307.819 106.523C307.66 106.211 307.481 105.903 307.284 105.595C306.609 104.416 305.883 103.267 305.148 102.13C304.152 100.63 303.097 99.1734 301.99 97.7847C300.34 95.6762 298.51 93.7147 296.521 91.9225C296.495 91.9135 296.475 91.893 296.466 91.8669C294.988 90.5584 293.417 89.3588 291.766 88.2778V88.2778C291.458 88.0684 291.15 87.8718 290.838 87.6753C290.79 87.6382 290.739 87.6053 290.685 87.577" stroke="black" stroke-width="2"/>
<path d="M266.043 318.68L299.089 410.276H251.405C251.404 404.121 255.96 398.916 262.061 398.103L272.44 396.714C272.44 396.714 258.485 378.341 243.385 357.75" stroke="black" stroke-width="2"/>
<path d="M271.906 100.37L257.583 137.355C256.71 139.61 254.967 141.421 252.747 142.381C250.527 143.341 248.015 143.37 245.773 142.461L211.847 128.728C211.83 128.682 211.816 128.635 211.804 128.587C211.377 126.878 206.993 110.496 201.678 110.496C197.597 110.496 199.542 118.576 201.251 123.148C201.447 123.639 201.631 124.101 201.798 124.494L201.533 124.383L174.969 113.556L191.722 69.392L224.431 82.0266L271.906 100.37Z" fill="#D7E8F0"/>
<path fill-rule="evenodd" clip-rule="evenodd" d="M201.789 124.494C200.007 120.414 197.17 110.496 201.682 110.496C206.998 110.496 211.377 126.891 211.809 128.587L211.851 128.728L245.773 142.465C248.018 143.373 250.533 143.341 252.755 142.377C254.976 141.413 256.717 139.598 257.588 137.338L273.546 96.1056L222.82 76.4977L190.116 63.863L171.743 112.248L201.789 124.494Z" stroke="black" stroke-width="2"/>
<path d="M306.938 123.456C307.955 141.188 303.994 163.872 281.387 177.225C247.944 196.999 203.682 152.199 187.296 130.459C184.588 126.888 182.301 123.017 180.481 118.922C179.928 117.731 179.466 116.499 179.096 115.239" stroke="black" stroke-width="2"/>
<path d="M226.597 168.491C226.597 168.491 229.161 187.167 221.256 203.045L221.29 203.002C221.29 203.002 221.29 203.032 221.264 203.045C209.13 225.806 191.756 262.117 201.447 288.501C204.741 297.474 210.42 308.156 217.21 319.231" stroke="black" stroke-width="2"/>
<path d="M285.438 60.261L285.463 60.3806C285.891 65.5899 282.016 70.1599 276.807 70.5884C275.205 70.7272 273.596 70.4459 272.136 69.7722C271.719 69.5951 271.317 69.3821 270.936 69.1356C270.619 68.9151 270.43 68.5537 270.43 68.1678C270.43 67.782 270.619 67.4205 270.936 67.2C272.773 65.8755 274.452 64.0296 274.931 61.8676C275.075 61.2027 275.086 60.5159 274.965 59.8465C274.699 58.1104 273.531 56.6462 271.897 56.001C271.646 55.9264 271.386 55.8848 271.124 55.8771C270.385 55.8173 269.415 55.9113 269.222 56.4582C270.166 53.8068 270.205 50.9176 269.333 48.2416C268.792 46.5859 267.878 45.0762 266.663 43.8278C266.775 44.807 266.445 45.7852 265.763 46.4964C265.08 47.2076 264.117 47.5779 263.134 47.5067C259.369 47.3785 258.66 43.7894 258.66 43.7894C258.66 43.7894 258.66 43.8321 258.66 43.8577C257.019 47.9468 252.251 48.0579 248.833 46.2419C247.62 45.62 246.555 44.7458 245.709 43.6783C244.739 39.4866 248.196 35.436 252.182 34.8549C252.268 32.1887 254.212 29.3345 256.835 29.1166C258.697 28.9574 260.498 29.8234 261.536 31.3769C261.608 31.4922 261.689 31.6161 261.753 31.7443C262.826 30.189 264.582 28.4842 266.454 28.3261C269.113 28.1394 271.605 29.6348 272.692 32.0691C272.692 31.8853 274.337 31.1333 274.504 31.065C277.664 29.8634 281.237 30.9554 283.186 33.7184C283.281 34.0897 283.344 34.4685 283.374 34.8507C283.468 35.9934 283.292 37.1423 282.861 38.2048C283.468 38.378 284.036 38.6683 284.532 39.0594C285.605 39.8452 286.325 41.0229 286.536 42.3366C286.557 42.4691 286.57 42.6015 286.578 42.734C286.664 43.7351 286.45 44.7391 285.963 45.6181C288.534 46.3525 290.525 48.3922 291.197 50.9805C291.302 51.4014 291.372 51.8301 291.407 52.2623C291.708 56.0493 289.154 59.4724 285.438 60.261Z" fill="#0147FF"/>
<path d="M285.437 60.261L285.463 60.3807C285.891 65.5899 282.016 70.16 276.806 70.5884C275.205 70.7272 273.595 70.4459 272.136 69.7723C273.974 68.4477 275.653 66.5976 276.127 64.4356C276.468 62.8064 276.034 61.1112 274.952 59.8466C274.686 58.1104 273.518 56.6463 271.884 56.001C271.633 55.9265 271.373 55.8848 271.111 55.8771C271.364 53.2047 270.735 50.5228 269.32 48.2416C268.779 46.586 267.865 45.0762 266.65 43.8278C266.762 44.807 266.432 45.7852 265.75 46.4964C265.067 47.2076 264.104 47.578 263.121 47.5067C259.356 47.3785 258.647 43.7894 258.647 43.7894C258.647 43.7894 258.647 43.8321 258.647 43.8578C257.006 47.9468 252.238 48.0579 248.82 46.242C247.608 45.62 246.543 44.7459 245.696 43.6783C244.726 39.4867 248.183 35.4361 252.169 34.855C252.255 32.1887 254.199 29.3345 256.823 29.1166C258.684 28.9575 260.485 29.8234 261.523 31.3769C261.595 31.4923 261.676 31.6162 261.741 31.7444C262.813 30.1891 264.569 28.4842 266.441 28.3261C269.104 28.1339 271.603 29.6302 272.692 32.0691C272.692 31.8854 274.337 31.1334 274.503 31.065C277.664 29.8635 281.237 30.9554 283.186 33.7184C283.281 34.0897 283.344 34.4686 283.374 34.8507C283.468 35.9935 283.292 37.1423 282.861 38.2048C283.468 38.378 284.036 38.6683 284.532 39.0594C284.453 39.6464 284.3 40.2208 284.074 40.7685C285.022 41.046 285.874 41.5815 286.536 42.3153C286.557 42.4477 286.57 42.5802 286.578 42.7126C286.664 43.7138 286.45 44.7177 285.963 45.5968C286.599 45.7782 287.208 46.0425 287.775 46.383C287.683 47.0077 287.48 47.611 287.177 48.1647C288.792 48.6192 290.208 49.6033 291.197 50.9591C291.301 51.3801 291.371 51.8088 291.407 52.241C291.72 56.0358 289.162 59.4715 285.437 60.261Z" fill="#0147FF"/>
<path d="M252.234 51.6984C252.234 51.6984 257.652 51.7753 258.895 56.3472" stroke="black" stroke-width="2"/>
<path d="M250.836 65.397C249.604 65.7011 248.324 65.7635 247.068 65.5807C246.588 65.4985 246.18 65.1865 245.975 64.7458C245.769 64.3051 245.793 63.7916 246.038 63.3717C247.166 61.4617 248.328 59.5732 249.593 57.7572C249.791 57.5262 249.914 57.2398 249.943 56.9368C249.943 56.9368 249.422 51.2839 250.563 46.947" stroke="black" stroke-width="2"/>
<ellipse rx="1.66212" ry="1.41429" transform="matrix(0.124813 -0.99218 0.99218 0.124814 253.697 56.3318)" fill="black"/>
<path d="M280.699 69.3877C280.814 70.52 285.895 78.3606 290.488 87.0173C290.486 87.0314 290.486 87.0459 290.488 87.06C290.573 87.2437 290.659 87.4403 290.757 87.6368" stroke="black" stroke-width="2" stroke-linecap="round" stroke-linejoin="round"/>
<path d="M262.373 77.677L263.971 89.0512" stroke="black" stroke-width="2"/>
<path d="M248.879 65.6832C248.879 65.6832 251.195 76.9463 256.891 78.6512C262.587 80.356 267.53 73.2504 267.53 73.2504" stroke="black" stroke-width="2" stroke-linecap="round" stroke-linejoin="round"/>
<path d="M250.435 70.7635C251.972 71.6618 253.859 71.7229 255.451 70.9259" stroke="black" stroke-width="2" stroke-linecap="round" stroke-linejoin="round"/>
<path d="M261.13 31.2316C261.062 30.3579 260.767 29.517 260.275 28.7918C258.987 26.8145 256.515 25.9719 254.287 26.7507C252.059 27.5294 250.651 29.7283 250.875 32.0776" stroke="black" stroke-width="2" stroke-linecap="round"/>
<path d="M258.925 39.0081C258.706 36.5025 257.268 34.2651 255.079 33.0262C249.649 29.9882 242.688 35.889 244.632 41.7342C245.316 43.768 246.944 45.2464 248.798 46.2291C252.216 48.0451 257.002 47.9383 258.626 43.8449L258.651 43.7808C258.651 43.7808 259.361 47.3657 263.125 47.4982C264.109 47.5676 265.073 47.1964 265.756 46.485C266.44 45.7736 266.772 44.7954 266.663 43.815C269.902 47.1478 270.748 52.1299 269.226 56.4497C269.504 55.672 271.363 55.813 271.901 55.9925C274.217 56.8 275.452 59.5389 274.939 61.8633C274.456 64.0382 272.777 65.8755 270.948 67.2086C270.632 67.4281 270.443 67.7889 270.443 68.1742C270.443 68.5595 270.632 68.9204 270.948 69.1399C272.69 70.2591 274.753 70.77 276.815 70.5926C282.022 70.1642 285.897 65.5968 285.472 60.3892L285.446 60.2696C288.843 59.5583 291.317 56.623 291.444 53.1549C291.57 49.6869 289.316 46.5792 285.98 45.6224C286.467 44.7434 286.681 43.7394 286.595 42.7383C286.351 39.911 283.87 37.8115 281.041 38.0382" stroke="black" stroke-width="2" stroke-linecap="round" stroke-linejoin="round"/>
<path d="M260.912 28.5867C261.937 26.8776 263.069 25.9205 265.184 25.7453C267.875 25.5256 270.407 27.0399 271.487 29.5139C271.414 29.3473 273.132 28.5654 273.307 28.497C273.992 28.2352 274.712 28.0768 275.443 28.027C279.497 27.8089 283.003 30.8231 283.395 34.8635C283.489 36.0063 283.313 37.1551 282.882 38.2176" stroke="black" stroke-width="2" stroke-linecap="square" stroke-linejoin="round"/>
<path d="M290.488 87.0216C290.488 87.0216 294.479 100.293 271.662 101.011" stroke="black" stroke-width="2"/>
<path d="M171.854 219.987C171.815 210.283 181.352 207.673 185.92 207.758C214.227 208.296 218.496 162.518 218.496 162.518" stroke="black" stroke-width="2" stroke-linecap="round" stroke-linejoin="round"/>
<path d="M320.009 205.609C320.009 205.609 316.667 238.569 320.009 249.661C323.35 260.754 304.135 252.05 304.135 252.05" stroke="black" stroke-width="2"/>
<path d="M128.575 230.451H106.36" stroke="black" stroke-width="2" stroke-linecap="round" stroke-linejoin="round"/>
<path d="M208.168 230.451H165.662" stroke="black" stroke-width="2" stroke-linecap="round" stroke-linejoin="round"/>
<path d="M159.565 230.451H134.471" stroke="black" stroke-width="2" stroke-linecap="round" stroke-linejoin="round"/>
<path d="M158.92 219.987H134.108" stroke="black" stroke-width="2" stroke-linecap="round" stroke-linejoin="round"/>
<path d="M178.69 219.987H165.295" stroke="black" stroke-width="2" stroke-linecap="round" stroke-linejoin="round"/>
<path d="M212.74 219.987H186.868" stroke="black" stroke-width="2" stroke-linecap="round" stroke-linejoin="round"/>
<path d="M127.908 219.987H123.52" stroke="black" stroke-width="2" stroke-linecap="round" stroke-linejoin="round"/>
<path d="M158.1 219.047H163.838C163.838 219.047 170.414 225.255 163.838 232.361V237.326H158.1" stroke="black" stroke-width="2" stroke-linecap="round" stroke-linejoin="round"/>
<path d="M132.83 219.047C132.83 219.047 139.406 225.255 132.83 232.361V237.326" stroke="black" stroke-width="2" stroke-linecap="round" stroke-linejoin="round"/>
<path d="M132.83 237.326H127.092V232.361C133.672 225.255 127.092 219.047 127.092 219.047H132.83" stroke="black" stroke-width="2" stroke-linecap="round" stroke-linejoin="round"/>
<path d="M158.1 219.047C158.1 219.047 164.68 225.255 158.1 232.361V237.326" stroke="black" stroke-width="2" stroke-linecap="round" stroke-linejoin="round"/>
<path d="M127.092 232.361H132.83" stroke="black" stroke-width="2" stroke-linecap="round" stroke-linejoin="round"/>
<path d="M158.1 232.361H163.838" stroke="black" stroke-width="2" stroke-linecap="round" stroke-linejoin="round"/>
<path d="M180.22 216.816C179.487 217.751 178.965 218.832 178.69 219.987C178.328 221.692 178.191 223.437 178.284 225.178C178.31 226.887 178.524 228.639 180.147 229.537C182.587 230.9 185.518 228.951 185.646 226.157C185.786 224.056 186.197 221.982 186.868 219.987C186.894 219.889 186.924 219.803 186.95 219.722" stroke="black" stroke-width="2" stroke-linecap="round" stroke-linejoin="round"/>
<path d="M186.949 219.709C188.983 219.282 192.013 218.167 193.555 215.291" stroke="black" stroke-width="2" stroke-linecap="round" stroke-linejoin="round"/>
<path d="M173.071 230.451C173.071 230.451 174.669 234.664 178.69 235.177C182.711 235.689 180.169 230.451 180.169 230.451C180.169 230.451 181.835 234.143 183.852 234.267C185.868 234.39 187.612 232.557 186.915 230.451C186.915 230.451 187.531 233.839 190.513 233.468C193.495 233.096 192.265 230.451 192.265 230.451" stroke="black" stroke-width="2" stroke-linecap="round" stroke-linejoin="round"/>
<g opacity="0.54">
<path d="M127.207 290.462L124.323 332.114C122.759 334.942 120.999 337.446 119.431 338.993C119.221 338.916 119.003 338.839 118.803 338.745C118.418 338.613 118.038 338.459 117.675 338.318C111.829 335.754 107.42 330.981 106.095 325.593C104.933 320.855 105.984 315.736 103.728 311.284C100.977 305.802 93.4735 302.362 92.5719 296.171C91.7174 290.381 96.9259 285.062 96.0842 279.396C95.11 272.987 87.2395 269.175 85.7696 262.907C84.851 259.01 85.6713 254.541 85.3423 250.516C84.9532 246.032 84.1943 241.587 83.0735 237.228C94.6912 236.373 106.518 242.782 110.283 251.956C113.359 259.463 111.505 268.235 116.32 275.076C118.935 278.781 123.293 281.549 125.545 285.429C126.239 286.638 126.742 287.946 127.036 289.309C127.058 289.403 127.058 289.501 127.075 289.574C127.096 289.727 127.113 289.843 127.13 289.958C127.169 290.291 127.207 290.462 127.207 290.462Z" fill="#0147FF"/>
<path d="M127.229 290.445H127.207C127.207 290.445 127.169 290.274 127.13 289.95C127.167 290.081 127.192 290.216 127.207 290.351C127.229 290.385 127.229 290.424 127.229 290.445Z" fill="#0147FF"/>
</g>
<path d="M165.611 274.204C164.082 279.61 155.869 282.895 154.874 288.437C153.993 293.347 159.42 297.931 158.523 302.918C157.57 308.271 149.772 311.233 146.909 315.971C144.576 319.817 145.666 324.222 144.461 328.311C143.068 332.955 138.479 337.1 132.347 339.296C131.967 339.433 131.604 339.565 131.219 339.681C131.01 339.736 130.792 339.813 130.57 339.869C128.545 338.207 126.233 335.284 124.34 332.131L127.224 290.48H127.246C129.48 288.587 132.04 286.848 133.817 284.745C135.749 282.472 136.646 279.99 137.236 277.392H137.244V277.106C138.099 272.995 138.163 268.697 140.094 264.8C144.008 256.87 156.292 251.349 168.389 252.076C167.248 255.82 166.467 259.664 166.056 263.557C165.705 267 166.568 270.859 165.611 274.204Z" fill="#0147FF"/>
<path d="M137.244 277.071V277.358H137.189C137.218 277.259 137.244 277.165 137.244 277.071Z" fill="#0147FF"/>
<path d="M137.244 277.071C137.244 277.165 137.206 277.259 137.189 277.358C136.616 279.956 135.719 282.438 133.77 284.711C131.993 286.813 129.433 288.557 127.199 290.445C127.199 290.445 127.199 290.385 127.177 290.368C127.162 290.233 127.137 290.098 127.1 289.967C127.1 289.851 127.066 289.736 127.045 289.582C127.045 289.51 127.045 289.411 127.006 289.317C126.712 287.955 126.209 286.646 125.515 285.438C123.263 281.558 118.905 278.789 116.29 275.085C116.29 275.085 117.474 255.558 127.464 249.614C136.954 243.996 137.244 273.82 137.244 277.071Z" fill="#0147FF"/>
<path d="M137.244 277.071V277.358H137.189C137.218 277.259 137.244 277.165 137.244 277.071Z" fill="#0147FF"/>
<path d="M127.207 290.368V290.462C127.207 290.462 127.169 290.292 127.13 289.967C127.167 290.098 127.192 290.233 127.207 290.368Z" fill="#0147FF"/>
<path d="M126.318 290.467C128.545 288.57 131.125 286.809 132.911 284.711C137.919 278.798 135.992 271.243 139.205 264.762C143.115 256.84 155.442 251.319 167.508 252.046C166.357 255.788 165.573 259.633 165.167 263.527C164.808 266.992 165.667 270.855 164.739 274.209C163.201 279.61 154.993 282.887 153.993 288.433C153.109 293.338 158.548 297.923 157.647 302.909C156.69 308.263 148.9 311.22 146.029 315.958C143.692 319.804 144.79 324.209 143.576 328.307C142.106 333.246 137.009 337.613 130.331 339.668C130.117 339.741 129.903 339.813 129.673 339.869C127.647 338.207 125.336 335.288 123.439 332.131" stroke="black" stroke-width="2"/>
<path d="M160.125 258.258C142.098 277.661 133.633 318.573 130.322 339.676C130.053 341.458 129.809 343.095 129.6 344.556" stroke="black" stroke-width="2"/>
<path fill-rule="evenodd" clip-rule="evenodd" d="M161.787 356.439L153.481 405.379C153.076 408.15 150.726 410.222 147.926 410.276H104.617C101.792 410.214 99.4345 408.103 99.0623 405.302L91.4139 356.439L161.787 356.439Z" stroke="black" stroke-width="2"/>
<path fill-rule="evenodd" clip-rule="evenodd" d="M169.666 350.987C169.431 354.072 166.987 356.447 164.056 356.447H89.2818C86.3806 356.447 83.9579 354.123 83.6802 351.072C83.3597 347.586 85.9618 344.565 89.2818 344.565H164.056C167.346 344.565 169.935 347.526 169.666 350.987V350.987Z" stroke="black" stroke-width="2"/>
<path fill-rule="evenodd" clip-rule="evenodd" d="M118.542 339.001C121.751 335.814 125.678 328.721 127.421 322.923C128.852 318.142 126.327 313.224 125.75 308.323C124.844 300.632 128.66 292.389 124.639 285.433C122.4 281.554 118.042 278.793 115.427 275.076C110.607 268.24 112.457 259.48 109.377 251.973C105.625 242.782 93.7982 236.394 82.1847 237.228C83.2948 241.593 84.0465 246.041 84.4322 250.529C84.7783 254.541 83.9494 259.01 84.8595 262.92C86.3336 269.188 94.2126 272.982 95.1783 279.404C96.0328 285.083 90.8115 290.394 91.6703 296.175C92.5932 302.375 100.066 305.802 102.831 311.292C105.074 315.753 104.023 320.863 105.189 325.598C106.651 331.511 111.821 336.707 118.542 339.001V339.001Z" stroke="black" stroke-width="2"/>
<path d="M89.2733 244.432C106.578 266.907 114.722 314.292 117.901 338.754C118.175 340.89 118.418 342.817 118.61 344.556" stroke="black" stroke-width="2"/>
<path d="M115.427 275.076C115.427 275.076 116.615 255.549 126.6 249.61C136.586 243.671 136.389 276.965 136.389 276.965" stroke="black" stroke-width="2"/>
<path d="M126.318 290.467C126.318 290.467 124.276 279.293 127.852 268.312" stroke="black" stroke-width="2"/>
<path d="M356.152 230.451H318.77" stroke="black" stroke-width="2" stroke-linecap="round" stroke-linejoin="round"/>
<path d="M356.759 219.987H319.966" stroke="black" stroke-width="2" stroke-linecap="round" stroke-linejoin="round"/>
<path d="M94.4434 410.276H332.515" stroke="black" stroke-width="2"/>
</svg>
